<?xml version="1.0" encoding="UTF-8"?><svg id="a" xmlns="http://www.w3.org/2000/svg" viewBox="0 0 1922 1075.25"><defs><style>.b{fill:#c683d7;}.b,.c{stroke-width:0px;}.c{fill:#fffcec;}</style></defs><rect class="c" width="1918" height="1075"/><path class="b" d="m2,0v1075.25h1920V0H2Zm1916.01,33.6h-32.86V4.76h32.86v28.84Zm-663.24,504.02h-32.86v-28.84h32.86v28.84Zm3.99-28.84h32.86v28.84h-32.86v-28.84Zm-40.83,28.84h-32.86v-28.84h32.86v28.84Zm-36.85,0h-32.86v-28.84h32.86v28.84Zm-36.85,0h-32.86v-28.84h32.86v28.84Zm-36.85,0h-32.86v-28.84h32.86v28.84Zm-36.85,0h-32.86v-28.84h32.86v28.84Zm-36.85,0h-32.86v-28.84h32.86v28.84Zm-36.85,0h-32.86v-28.84h32.86v28.84Zm-36.85,0h-32.86v-28.84h32.86v28.84Zm-36.85,0h-32.86v-28.84h32.86v28.84Zm-36.85,0h-32.86v-28.84h32.86v28.84Zm-36.85,0h-32.86v-28.84h32.86v28.84Zm-36.85,0h-32.86v-28.84h32.86v28.84Zm-36.85,0h-32.86v-28.84h32.86v28.84Zm-36.85,0h-32.86v-28.84h32.86v28.84Zm-36.85,0h-32.86v-28.84h32.86v28.84Zm-36.85,0h-32.86v-28.84h32.86v28.84Zm-36.85,0h-32.86v-28.84h32.86v28.84Zm0,4.76v28.84h-32.86v-28.84h32.86Zm3.99,0h32.86v28.84h-32.86v-28.84Zm36.85,0h32.86v28.84h-32.86v-28.84Zm36.85,0h32.86v28.84h-32.86v-28.84Zm36.85,0h32.86v28.84h-32.86v-28.84Zm36.85,0h32.86v28.84h-32.86v-28.84Zm36.85,0h32.86v28.84h-32.86v-28.84Zm36.85,0h32.86v28.84h-32.86v-28.84Zm36.85,0h32.86v28.84h-32.86v-28.84Zm36.85,0h32.86v28.84h-32.86v-28.84Zm36.85,0h32.86v28.84h-32.86v-28.84Zm36.85,0h32.86v28.84h-32.86v-28.84Zm36.85,0h32.86v28.84h-32.86v-28.84Zm36.85,0h32.86v28.84h-32.86v-28.84Zm36.85,0h32.86v28.84h-32.86v-28.84Zm36.85,0h32.86v28.84h-32.86v-28.84Zm36.85,0h32.86v28.84h-32.86v-28.84Zm36.85,0h32.86v28.84h-32.86v-28.84Zm36.85,0h32.86v28.84h-32.86v-28.84Zm36.85,0h32.86v28.84h-32.86v-28.84Zm0-4.76v-28.84h32.86v28.84h-32.86Zm36.85-28.84h32.86v28.84h-32.86v-28.84Zm0-4.76v-28.84h32.86v28.84h-32.86Zm-3.99,0h-32.86v-28.84h32.86v28.84Zm-36.85,0h-32.86v-28.84h32.86v28.84Zm-36.85,0h-32.86v-28.84h32.86v28.84Zm-36.85,0h-32.86v-28.84h32.86v28.84Zm-36.85,0h-32.86v-28.84h32.86v28.84Zm-36.85,0h-32.86v-28.84h32.86v28.84Zm-36.85,0h-32.86v-28.84h32.86v28.84Zm-36.85,0h-32.86v-28.84h32.86v28.84Zm-36.85,0h-32.86v-28.84h32.86v28.84Zm-36.85,0h-32.86v-28.84h32.86v28.84Zm-36.85,0h-32.86v-28.84h32.86v28.84Zm-36.85,0h-32.86v-28.84h32.86v28.84Zm-36.85,0h-32.86v-28.84h32.86v28.84Zm-36.85,0h-32.86v-28.84h32.86v28.84Zm-36.85,0h-32.86v-28.84h32.86v28.84Zm-36.85,0h-32.86v-28.84h32.86v28.84Zm-36.85,0h-32.86v-28.84h32.86v28.84Zm-36.85,0h-32.86v-28.84h32.86v28.84Zm-36.85,0h-32.86v-28.84h32.86v28.84Zm-36.85,0h-32.86v-28.84h32.86v28.84Zm-36.85,0h-32.86v-28.84h32.86v28.84Zm0,4.76v28.84h-32.86v-28.84h32.86Zm-36.85,28.84h-32.86v-28.84h32.86v28.84Zm0,4.76v28.84h-32.86v-28.84h32.86Zm3.99,0h32.86v28.84h-32.86v-28.84Zm32.86,33.6v28.84h-32.86v-28.84h32.86Zm3.99,0h32.86v28.84h-32.86v-28.84Zm36.85,0h32.86v28.84h-32.86v-28.84Zm36.85,0h32.86v28.84h-32.86v-28.84Zm36.85,0h32.86v28.84h-32.86v-28.84Zm36.85,0h32.86v28.84h-32.86v-28.84Zm36.85,0h32.86v28.84h-32.86v-28.84Zm36.85,0h32.86v28.84h-32.86v-28.84Zm36.85,0h32.86v28.84h-32.86v-28.84Zm36.85,0h32.86v28.84h-32.86v-28.84Zm36.85,0h32.86v28.84h-32.86v-28.84Zm36.85,0h32.86v28.84h-32.86v-28.84Zm36.85,0h32.86v28.84h-32.86v-28.84Zm36.85,0h32.86v28.84h-32.86v-28.84Zm36.85,0h32.86v28.84h-32.86v-28.84Zm36.85,0h32.86v28.84h-32.86v-28.84Zm36.85,0h32.86v28.84h-32.86v-28.84Zm36.85,0h32.86v28.84h-32.86v-28.84Zm36.85,0h32.86v28.84h-32.86v-28.84Zm36.85,0h32.86v28.84h-32.86v-28.84Zm36.85,0h32.86v28.84h-32.86v-28.84Zm36.85,0h32.86v28.84h-32.86v-28.84Zm0-4.76v-28.84h32.86v28.84h-32.86Zm36.85-28.84h32.86v28.84h-32.86v-28.84Zm0-4.76v-28.84h32.86v28.84h-32.86Zm0-33.6v-28.84h32.86v28.84h-32.86Zm0-33.6v-28.84h32.86v28.84h-32.86Zm-3.99,0h-32.86v-28.84h32.86v28.84Zm-36.85,0h-32.86v-28.84h32.86v28.84Zm-36.85,0h-32.86v-28.84h32.86v28.84Zm-36.85,0h-32.86v-28.84h32.86v28.84Zm-36.85,0h-32.86v-28.84h32.86v28.84Zm-36.85,0h-32.86v-28.84h32.86v28.84Zm-36.85,0h-32.86v-28.84h32.86v28.84Zm-36.85,0h-32.86v-28.84h32.86v28.84Zm-36.85,0h-32.86v-28.84h32.86v28.84Zm-36.85,0h-32.86v-28.84h32.86v28.84Zm-36.85,0h-32.86v-28.84h32.86v28.84Zm-36.85,0h-32.86v-28.84h32.86v28.84Zm-36.85,0h-32.86v-28.84h32.86v28.84Zm-36.85,0h-32.86v-28.84h32.86v28.84Zm-36.85,0h-32.86v-28.84h32.86v28.84Zm-36.85,0h-32.86v-28.84h32.86v28.84Zm-36.85,0h-32.86v-28.84h32.86v28.84Zm-36.85,0h-32.86v-28.84h32.86v28.84Zm-36.85,0h-32.86v-28.84h32.86v28.84Zm-36.85,0h-32.86v-28.84h32.86v28.84Zm-36.85,0h-32.86v-28.84h32.86v28.84Zm-36.85,0h-32.86v-28.84h32.86v28.84Zm-36.85,0h-32.86v-28.84h32.86v28.84Zm0,4.76v28.84h-32.86v-28.84h32.86Zm-36.85,28.84h-32.86v-28.84h32.86v28.84Zm0,4.76v28.84h-32.86v-28.84h32.86Zm0,33.6v28.84h-32.86v-28.84h32.86Zm0,33.6v28.84h-32.86v-28.84h32.86Zm3.99,0h32.86v28.84h-32.86v-28.84Zm32.86,33.6v28.84h-32.86v-28.84h32.86Zm3.99,0h32.86v28.84h-32.86v-28.84Zm36.85,0h32.86v28.84h-32.86v-28.84Zm36.85,0h32.86v28.84h-32.86v-28.84Zm36.85,0h32.86v28.84h-32.86v-28.84Zm36.85,0h32.86v28.84h-32.86v-28.84Zm36.85,0h32.86v28.84h-32.86v-28.84Zm36.85,0h32.86v28.84h-32.86v-28.84Zm36.85,0h32.86v28.84h-32.86v-28.84Zm36.85,0h32.86v28.84h-32.86v-28.84Zm36.85,0h32.86v28.84h-32.86v-28.84Zm36.85,0h32.86v28.84h-32.86v-28.84Zm36.85,0h32.86v28.84h-32.86v-28.84Zm36.85,0h32.86v28.84h-32.86v-28.84Zm36.85,0h32.86v28.84h-32.86v-28.84Zm36.85,0h32.86v28.84h-32.86v-28.84Zm36.85,0h32.86v28.84h-32.86v-28.84Zm36.85,0h32.86v28.84h-32.86v-28.84Zm36.85,0h32.86v28.84h-32.86v-28.84Zm36.85,0h32.86v28.84h-32.86v-28.84Zm36.85,0h32.86v28.84h-32.86v-28.84Zm36.85,0h32.86v28.84h-32.86v-28.84Zm36.85,0h32.86v28.84h-32.86v-28.84Zm36.85,0h32.86v28.84h-32.86v-28.84Zm0-4.76v-28.84h32.86v28.84h-32.86Zm36.85-28.84h32.86v28.84h-32.86v-28.84Zm0-4.76v-28.84h32.86v28.84h-32.86Zm0-33.6v-28.84h32.86v28.84h-32.86Zm0-33.6v-28.84h32.86v28.84h-32.86Zm0-33.6v-28.84h32.86v28.84h-32.86Zm0-33.6v-28.84h32.86v28.84h-32.86Zm-3.99,0h-32.86v-28.84h32.86v28.84Zm-36.85,0h-32.86v-28.84h32.86v28.84Zm-36.85,0h-32.86v-28.84h32.86v28.84Zm-36.85,0h-32.86v-28.84h32.86v28.84Zm-36.85,0h-32.86v-28.84h32.86v28.84Zm-36.85,0h-32.86v-28.84h32.86v28.84Zm-36.85,0h-32.86v-28.84h32.86v28.84Zm-36.85,0h-32.86v-28.84h32.86v28.84Zm-36.85,0h-32.86v-28.84h32.86v28.84Zm-36.85,0h-32.86v-28.84h32.86v28.84Zm-36.85,0h-32.86v-28.84h32.86v28.84Zm-36.85,0h-32.86v-28.84h32.86v28.84Zm-36.85,0h-32.86v-28.84h32.86v28.84Zm-36.85,0h-32.86v-28.84h32.86v28.84Zm-36.85,0h-32.86v-28.84h32.86v28.84Zm-36.85,0h-32.86v-28.84h32.86v28.84Zm-36.85,0h-32.86v-28.84h32.86v28.84Zm-36.85,0h-32.86v-28.84h32.86v28.84Zm-36.85,0h-32.86v-28.84h32.86v28.84Zm-36.85,0h-32.86v-28.84h32.86v28.84Zm-36.85,0h-32.86v-28.84h32.86v28.84Zm-36.85,0h-32.86v-28.84h32.86v28.84Zm-36.85,0h-32.86v-28.84h32.86v28.84Zm-36.85,0h-32.86v-28.84h32.86v28.84Zm-36.85,0h-32.86v-28.84h32.86v28.84Zm0,4.76v28.84h-32.86v-28.84h32.86Zm-36.85,28.84h-32.86v-28.84h32.86v28.84Zm0,4.76v28.84h-32.86v-28.84h32.86Zm0,33.6v28.84h-32.86v-28.84h32.86Zm0,33.6v28.84h-32.86v-28.84h32.86Zm0,33.6v28.84h-32.86v-28.84h32.86Zm0,33.6v28.84h-32.86v-28.84h32.86Zm3.99,0h32.86v28.84h-32.86v-28.84Zm32.86,33.6v28.84h-32.86v-28.84h32.86Zm3.99,0h32.86v28.84h-32.86v-28.84Zm36.85,0h32.86v28.84h-32.86v-28.84Zm36.85,0h32.86v28.84h-32.86v-28.84Zm36.85,0h32.86v28.84h-32.86v-28.84Zm36.85,0h32.86v28.84h-32.86v-28.84Zm36.85,0h32.86v28.84h-32.86v-28.84Zm36.85,0h32.86v28.84h-32.86v-28.84Zm36.85,0h32.86v28.84h-32.86v-28.84Zm36.85,0h32.86v28.84h-32.86v-28.84Zm36.85,0h32.86v28.84h-32.86v-28.84Zm36.85,0h32.86v28.84h-32.86v-28.84Zm36.85,0h32.86v28.84h-32.86v-28.84Zm36.85,0h32.86v28.84h-32.86v-28.84Zm36.85,0h32.86v28.84h-32.86v-28.84Zm36.85,0h32.86v28.84h-32.86v-28.84Zm36.85,0h32.86v28.84h-32.86v-28.84Zm36.85,0h32.86v28.84h-32.86v-28.84Zm36.85,0h32.86v28.84h-32.86v-28.84Zm36.85,0h32.86v28.84h-32.86v-28.84Zm36.85,0h32.86v28.84h-32.86v-28.84Zm36.85,0h32.86v28.84h-32.86v-28.84Zm36.85,0h32.86v28.84h-32.86v-28.84Zm36.85,0h32.86v28.84h-32.86v-28.84Zm36.85,0h32.86v28.84h-32.86v-28.84Zm36.85,0h32.86v28.84h-32.86v-28.84Zm0-4.76v-28.84h32.86v28.84h-32.86Zm36.85-28.84h32.86v28.84h-32.86v-28.84Zm0-4.76v-28.84h32.86v28.84h-32.86Zm0-33.6v-28.84h32.86v28.84h-32.86Zm0-33.6v-28.84h32.86v28.84h-32.86Zm0-33.6v-28.84h32.86v28.84h-32.86Zm0-33.6v-28.84h32.86v28.84h-32.86Zm0-33.6v-28.84h32.86v28.84h-32.86Zm0-33.6v-28.84h32.86v28.84h-32.86Zm-3.99,0h-32.86v-28.84h32.86v28.84Zm-36.85,0h-32.86v-28.84h32.86v28.84Zm-36.85,0h-32.86v-28.84h32.86v28.84Zm-36.85,0h-32.86v-28.84h32.86v28.84Zm-36.85,0h-32.86v-28.84h32.86v28.84Zm-36.85,0h-32.86v-28.84h32.86v28.84Zm-36.85,0h-32.86v-28.84h32.86v28.84Zm-36.85,0h-32.86v-28.84h32.86v28.84Zm-36.85,0h-32.86v-28.84h32.86v28.84Zm-36.85,0h-32.86v-28.84h32.86v28.84Zm-36.85,0h-32.86v-28.84h32.86v28.84Zm-36.85,0h-32.86v-28.84h32.86v28.84Zm-36.85,0h-32.86v-28.84h32.86v28.84Zm-36.85,0h-32.86v-28.84h32.86v28.84Zm-36.85,0h-32.86v-28.84h32.86v28.84Zm-36.85,0h-32.86v-28.84h32.86v28.84Zm-36.85,0h-32.86v-28.84h32.86v28.84Zm-36.85,0h-32.86v-28.84h32.86v28.84Zm-36.85,0h-32.86v-28.84h32.86v28.84Zm-36.85,0h-32.86v-28.84h32.86v28.84Zm-36.85,0h-32.86v-28.84h32.86v28.84Zm-36.85,0h-32.86v-28.84h32.86v28.84Zm-36.85,0h-32.86v-28.84h32.86v28.84Zm-36.85,0h-32.86v-28.84h32.86v28.84Zm-36.85,0h-32.86v-28.84h32.86v28.84Zm-36.85,0h-32.86v-28.84h32.86v28.84Zm-36.85,0h-32.86v-28.84h32.86v28.84Zm0,4.76v28.84h-32.86v-28.84h32.86Zm-36.85,28.84h-32.86v-28.84h32.86v28.84Zm0,4.76v28.84h-32.86v-28.84h32.86Zm0,33.6v28.84h-32.86v-28.84h32.86Zm0,33.6v28.84h-32.86v-28.84h32.86Zm0,33.6v28.84h-32.86v-28.84h32.86Zm0,33.6v28.84h-32.86v-28.84h32.86Zm0,33.6v28.84h-32.86v-28.84h32.86Zm0,33.6v28.84h-32.86v-28.84h32.86Zm3.99,0h32.86v28.84h-32.86v-28.84Zm32.86,33.6v28.84h-32.86v-28.84h32.86Zm3.99,0h32.86v28.84h-32.86v-28.84Zm36.85,0h32.86v28.84h-32.86v-28.84Zm36.85,0h32.86v28.84h-32.86v-28.84Zm36.85,0h32.86v28.84h-32.86v-28.84Zm36.85,0h32.86v28.84h-32.86v-28.84Zm36.85,0h32.86v28.84h-32.86v-28.84Zm36.85,0h32.86v28.84h-32.86v-28.84Zm36.85,0h32.86v28.84h-32.86v-28.84Zm36.85,0h32.86v28.84h-32.86v-28.84Zm36.85,0h32.86v28.84h-32.86v-28.84Zm36.85,0h32.86v28.84h-32.86v-28.84Zm36.85,0h32.86v28.84h-32.86v-28.84Zm36.85,0h32.86v28.84h-32.86v-28.84Zm36.85,0h32.86v28.84h-32.86v-28.84Zm36.85,0h32.86v28.84h-32.86v-28.84Zm36.85,0h32.86v28.84h-32.86v-28.84Zm36.85,0h32.86v28.84h-32.86v-28.84Zm36.85,0h32.86v28.84h-32.86v-28.84Zm36.85,0h32.86v28.84h-32.86v-28.84Zm36.85,0h32.86v28.84h-32.86v-28.84Zm36.85,0h32.86v28.84h-32.86v-28.84Zm36.85,0h32.86v28.84h-32.86v-28.84Zm36.85,0h32.86v28.84h-32.86v-28.84Zm36.85,0h32.86v28.84h-32.86v-28.84Zm36.85,0h32.86v28.84h-32.86v-28.84Zm36.85,0h32.86v28.84h-32.86v-28.84Zm36.85,0h32.86v28.84h-32.86v-28.84Zm0-4.76v-28.84h32.86v28.84h-32.86Zm36.85-28.84h32.86v28.84h-32.86v-28.84Zm0-4.76v-28.84h32.86v28.84h-32.86Zm0-33.6v-28.84h32.86v28.84h-32.86Zm0-33.6v-28.84h32.86v28.84h-32.86Zm0-33.6v-28.84h32.86v28.84h-32.86Zm0-33.6v-28.84h32.86v28.84h-32.86Zm0-33.6v-28.84h32.86v28.84h-32.86Zm0-33.6v-28.84h32.86v28.84h-32.86Zm0-33.6v-28.84h32.86v28.84h-32.86Zm0-33.6v-28.84h32.86v28.84h-32.86Zm-3.99,0h-32.86v-28.84h32.86v28.84Zm-36.85,0h-32.86v-28.84h32.86v28.84Zm-36.85,0h-32.86v-28.84h32.86v28.84Zm-36.85,0h-32.86v-28.84h32.86v28.84Zm-36.85,0h-32.86v-28.84h32.86v28.84Zm-36.85,0h-32.86v-28.84h32.86v28.84Zm-36.85,0h-32.86v-28.84h32.86v28.84Zm-36.85,0h-32.86v-28.84h32.86v28.84Zm-36.85,0h-32.86v-28.84h32.86v28.84Zm-36.85,0h-32.86v-28.84h32.86v28.84Zm-36.85,0h-32.86v-28.84h32.86v28.84Zm-36.85,0h-32.86v-28.84h32.86v28.84Zm-36.85,0h-32.86v-28.84h32.86v28.84Zm-36.85,0h-32.86v-28.84h32.86v28.84Zm-36.85,0h-32.86v-28.84h32.86v28.84Zm-36.85,0h-32.86v-28.84h32.86v28.84Zm-36.85,0h-32.86v-28.84h32.86v28.84Zm-36.85,0h-32.86v-28.84h32.86v28.84Zm-36.85,0h-32.86v-28.84h32.86v28.84Zm-36.85,0h-32.86v-28.84h32.86v28.84Zm-36.85,0h-32.86v-28.84h32.86v28.84Zm-36.85,0h-32.86v-28.84h32.86v28.84Zm-36.85,0h-32.86v-28.84h32.86v28.84Zm-36.85,0h-32.86v-28.84h32.86v28.84Zm-36.85,0h-32.86v-28.84h32.86v28.84Zm-36.85,0h-32.86v-28.84h32.86v28.84Zm-36.85,0h-32.86v-28.84h32.86v28.84Zm-36.85,0h-32.86v-28.84h32.86v28.84Zm-36.85,0h-32.86v-28.84h32.86v28.84Zm0,4.76v28.84h-32.86v-28.84h32.86Zm-36.85,28.84h-32.86v-28.84h32.86v28.84Zm0,4.76v28.84h-32.86v-28.84h32.86Zm0,33.6v28.84h-32.86v-28.84h32.86Zm0,33.6v28.84h-32.86v-28.84h32.86Zm0,33.6v28.84h-32.86v-28.84h32.86Zm0,33.6v28.84h-32.86v-28.84h32.86Zm0,33.6v28.84h-32.86v-28.84h32.86Zm0,33.6v28.84h-32.86v-28.84h32.86Zm0,33.6v28.84h-32.86v-28.84h32.86Zm0,33.6v28.84h-32.86v-28.84h32.86Zm3.99,0h32.86v28.84h-32.86v-28.84Zm32.86,33.6v28.84h-32.86v-28.84h32.86Zm3.99,0h32.86v28.84h-32.86v-28.84Zm36.85,0h32.86v28.84h-32.86v-28.84Zm36.85,0h32.86v28.84h-32.86v-28.84Zm36.85,0h32.86v28.84h-32.86v-28.84Zm36.85,0h32.86v28.84h-32.86v-28.84Zm36.85,0h32.86v28.84h-32.86v-28.84Zm36.85,0h32.86v28.84h-32.86v-28.84Zm36.85,0h32.86v28.84h-32.86v-28.84Zm36.85,0h32.86v28.84h-32.86v-28.84Zm36.85,0h32.86v28.84h-32.86v-28.84Zm36.85,0h32.86v28.84h-32.86v-28.84Zm36.85,0h32.86v28.84h-32.86v-28.84Zm36.85,0h32.86v28.84h-32.86v-28.84Zm36.85,0h32.86v28.84h-32.86v-28.84Zm36.85,0h32.86v28.84h-32.86v-28.84Zm36.85,0h32.86v28.84h-32.86v-28.84Zm36.85,0h32.86v28.84h-32.86v-28.84Zm36.85,0h32.86v28.84h-32.86v-28.84Zm36.85,0h32.86v28.84h-32.86v-28.84Zm36.85,0h32.86v28.84h-32.86v-28.84Zm36.85,0h32.86v28.84h-32.86v-28.84Zm36.85,0h32.86v28.84h-32.86v-28.84Zm36.85,0h32.86v28.84h-32.86v-28.84Zm36.85,0h32.86v28.84h-32.86v-28.84Zm36.85,0h32.86v28.84h-32.86v-28.84Zm36.85,0h32.86v28.84h-32.86v-28.84Zm36.85,0h32.86v28.84h-32.86v-28.84Zm36.85,0h32.86v28.84h-32.86v-28.84Zm36.85,0h32.86v28.84h-32.86v-28.84Zm0-4.76v-28.84h32.86v28.84h-32.86Zm36.85-28.84h32.86v28.84h-32.86v-28.84Zm0-4.76v-28.84h32.86v28.84h-32.86Zm0-33.6v-28.84h32.86v28.84h-32.86Zm0-33.6v-28.84h32.86v28.84h-32.86Zm0-33.6v-28.84h32.86v28.84h-32.86Zm0-33.6v-28.84h32.86v28.84h-32.86Zm0-33.6v-28.84h32.86v28.84h-32.86Zm0-33.6v-28.84h32.86v28.84h-32.86Zm0-33.6v-28.84h32.86v28.84h-32.86Zm0-33.6v-28.84h32.86v28.84h-32.86Zm0-33.6v-28.84h32.86v28.84h-32.86Zm0-33.6v-28.84h32.86v28.84h-32.86Zm-3.99,0h-32.86v-28.84h32.86v28.84Zm-36.85,0h-32.86v-28.84h32.86v28.84Zm-36.85,0h-32.86v-28.84h32.86v28.84Zm-36.85,0h-32.86v-28.84h32.86v28.84Zm-36.85,0h-32.86v-28.84h32.86v28.84Zm-36.85,0h-32.86v-28.84h32.86v28.84Zm-36.85,0h-32.86v-28.84h32.86v28.84Zm-36.85,0h-32.86v-28.84h32.86v28.84Zm-36.85,0h-32.86v-28.84h32.86v28.84Zm-36.85,0h-32.86v-28.84h32.86v28.84Zm-36.85,0h-32.86v-28.84h32.86v28.84Zm-36.85,0h-32.86v-28.84h32.86v28.84Zm-36.85,0h-32.86v-28.84h32.86v28.84Zm-36.85,0h-32.86v-28.84h32.86v28.84Zm-36.85,0h-32.86v-28.84h32.86v28.84Zm-36.85,0h-32.86v-28.84h32.86v28.84Zm-36.85,0h-32.86v-28.84h32.86v28.84Zm-36.85,0h-32.86v-28.84h32.86v28.84Zm-36.85,0h-32.86v-28.84h32.86v28.84Zm-36.85,0h-32.86v-28.84h32.86v28.84Zm-36.85,0h-32.86v-28.84h32.86v28.84Zm-36.85,0h-32.86v-28.84h32.86v28.84Zm-36.85,0h-32.86v-28.84h32.86v28.84Zm-36.85,0h-32.86v-28.84h32.86v28.84Zm-36.85,0h-32.86v-28.84h32.86v28.84Zm-36.85,0h-32.86v-28.84h32.86v28.84Zm-36.85,0h-32.86v-28.84h32.86v28.84Zm-36.85,0h-32.86v-28.84h32.86v28.84Zm-36.85,0h-32.86v-28.84h32.86v28.84Zm-36.85,0h-32.86v-28.84h32.86v28.84Zm-36.85,0h-32.86v-28.84h32.86v28.84Zm0,4.76v28.84h-32.86v-28.84h32.86Zm-36.85,28.84h-32.86v-28.84h32.86v28.84Zm0,4.76v28.84h-32.86v-28.84h32.86Zm0,33.6v28.84h-32.86v-28.84h32.86Zm0,33.6v28.84h-32.86v-28.84h32.86Zm0,33.6v28.84h-32.86v-28.84h32.86Zm0,33.6v28.84h-32.86v-28.84h32.86Zm0,33.6v28.84h-32.86v-28.84h32.86Zm0,33.6v28.84h-32.86v-28.84h32.86Zm0,33.6v28.84h-32.86v-28.84h32.86Zm0,33.6v28.84h-32.86v-28.84h32.86Zm0,33.6v28.84h-32.86v-28.84h32.86Zm0,33.6v28.84h-32.86v-28.84h32.86Zm3.99,0h32.86v28.84h-32.86v-28.84Zm32.86,33.6v28.84h-32.86v-28.84h32.86Zm3.99,0h32.86v28.84h-32.86v-28.84Zm36.85,0h32.86v28.84h-32.86v-28.84Zm36.85,0h32.86v28.84h-32.86v-28.84Zm36.85,0h32.86v28.84h-32.86v-28.84Zm36.85,0h32.86v28.84h-32.86v-28.84Zm36.85,0h32.86v28.84h-32.86v-28.84Zm36.85,0h32.86v28.84h-32.86v-28.84Zm36.85,0h32.86v28.84h-32.86v-28.84Zm36.85,0h32.86v28.84h-32.86v-28.84Zm36.85,0h32.86v28.84h-32.86v-28.84Zm36.85,0h32.86v28.84h-32.86v-28.84Zm36.85,0h32.86v28.84h-32.86v-28.84Zm36.85,0h32.86v28.84h-32.86v-28.84Zm36.85,0h32.86v28.84h-32.86v-28.84Zm36.85,0h32.86v28.84h-32.86v-28.84Zm36.85,0h32.86v28.84h-32.86v-28.84Zm36.85,0h32.86v28.84h-32.86v-28.84Zm36.85,0h32.86v28.84h-32.86v-28.84Zm36.85,0h32.86v28.84h-32.86v-28.84Zm36.85,0h32.86v28.84h-32.86v-28.84Zm36.85,0h32.86v28.84h-32.86v-28.84Zm36.85,0h32.86v28.84h-32.86v-28.84Zm36.85,0h32.86v28.84h-32.86v-28.84Zm36.85,0h32.86v28.84h-32.86v-28.84Zm36.85,0h32.86v28.84h-32.86v-28.84Zm36.85,0h32.86v28.84h-32.86v-28.84Zm36.85,0h32.86v28.84h-32.86v-28.84Zm36.85,0h32.86v28.84h-32.86v-28.84Zm36.85,0h32.86v28.84h-32.86v-28.84Zm36.85,0h32.86v28.84h-32.86v-28.84Zm36.85,0h32.86v28.84h-32.86v-28.84Zm0-4.76v-28.84h32.86v28.84h-32.86Zm36.85-28.84h32.86v28.84h-32.86v-28.84Zm0-4.76v-28.84h32.86v28.84h-32.86Zm0-33.6v-28.84h32.86v28.84h-32.86Zm0-33.6v-28.84h32.86v28.84h-32.86Zm0-33.6v-28.84h32.86v28.84h-32.86Zm0-33.6v-28.84h32.86v28.84h-32.86Zm0-33.6v-28.84h32.86v28.84h-32.86Zm0-33.6v-28.84h32.86v28.84h-32.86Zm0-33.6v-28.84h32.86v28.84h-32.86Zm0-33.6v-28.84h32.86v28.84h-32.86Zm0-33.6v-28.84h32.86v28.84h-32.86Zm0-33.6v-28.84h32.86v28.84h-32.86Zm0-33.6v-28.84h32.86v28.84h-32.86Zm0-33.6v-28.84h32.86v28.84h-32.86Zm-3.99,0h-32.86v-28.84h32.86v28.84Zm-36.85,0h-32.86v-28.84h32.86v28.84Zm-36.85,0h-32.86v-28.84h32.86v28.84Zm-36.85,0h-32.86v-28.84h32.86v28.84Zm-36.85,0h-32.86v-28.84h32.86v28.84Zm-36.85,0h-32.86v-28.84h32.86v28.84Zm-36.85,0h-32.86v-28.84h32.86v28.84Zm-36.85,0h-32.86v-28.84h32.86v28.84Zm-36.85,0h-32.86v-28.84h32.86v28.84Zm-36.85,0h-32.86v-28.84h32.86v28.84Zm-36.85,0h-32.86v-28.84h32.86v28.84Zm-36.85,0h-32.86v-28.84h32.86v28.84Zm-36.85,0h-32.86v-28.84h32.86v28.84Zm-36.85,0h-32.86v-28.84h32.86v28.84Zm-36.85,0h-32.86v-28.84h32.86v28.84Zm-36.85,0h-32.86v-28.84h32.86v28.84Zm-36.85,0h-32.86v-28.84h32.86v28.84Zm-36.85,0h-32.86v-28.84h32.86v28.84Zm-36.85,0h-32.86v-28.84h32.86v28.84Zm-36.85,0h-32.86v-28.84h32.86v28.84Zm-36.85,0h-32.86v-28.84h32.86v28.84Zm-36.85,0h-32.86v-28.84h32.86v28.84Zm-36.85,0h-32.86v-28.84h32.86v28.84Zm-36.85,0h-32.86v-28.84h32.86v28.84Zm-36.85,0h-32.86v-28.84h32.86v28.84Zm-36.85,0h-32.86v-28.84h32.86v28.84Zm-36.85,0h-32.86v-28.84h32.86v28.84Zm-36.85,0h-32.86v-28.84h32.86v28.84Zm-36.85,0h-32.86v-28.84h32.86v28.84Zm-36.85,0h-32.86v-28.84h32.86v28.84Zm-36.85,0h-32.86v-28.84h32.86v28.84Zm-36.85,0h-32.86v-28.84h32.86v28.84Zm-36.85,0h-32.86v-28.84h32.86v28.84Zm0,4.76v28.84h-32.86v-28.84h32.86Zm-36.85,28.84h-32.86v-28.84h32.86v28.84Zm0,4.76v28.84h-32.86v-28.84h32.86Zm0,33.6v28.84h-32.86v-28.84h32.86Zm0,33.6v28.84h-32.86v-28.84h32.86Zm0,33.6v28.84h-32.86v-28.84h32.86Zm0,33.6v28.84h-32.86v-28.84h32.86Zm0,33.6v28.84h-32.86v-28.84h32.86Zm0,33.6v28.84h-32.86v-28.84h32.86Zm0,33.6v28.84h-32.86v-28.84h32.86Zm0,33.6v28.84h-32.86v-28.84h32.86Zm0,33.6v28.84h-32.86v-28.84h32.86Zm0,33.6v28.84h-32.86v-28.84h32.86Zm0,33.6v28.84h-32.86v-28.84h32.86Zm0,33.6v28.84h-32.86v-28.84h32.86Zm3.99,0h32.86v28.84h-32.86v-28.84Zm32.86,33.6v28.84h-32.86v-28.84h32.86Zm3.99,0h32.86v28.84h-32.86v-28.84Zm36.85,0h32.86v28.84h-32.86v-28.84Zm36.85,0h32.86v28.84h-32.86v-28.84Zm36.85,0h32.86v28.84h-32.86v-28.84Zm36.85,0h32.86v28.84h-32.86v-28.84Zm36.85,0h32.86v28.84h-32.86v-28.84Zm36.85,0h32.86v28.84h-32.86v-28.84Zm36.85,0h32.86v28.84h-32.86v-28.84Zm36.85,0h32.86v28.84h-32.86v-28.84Zm36.85,0h32.86v28.84h-32.86v-28.84Zm36.85,0h32.86v28.84h-32.86v-28.84Zm36.85,0h32.86v28.84h-32.86v-28.84Zm36.85,0h32.86v28.84h-32.86v-28.84Zm36.85,0h32.86v28.84h-32.86v-28.84Zm36.85,0h32.86v28.84h-32.86v-28.84Zm36.85,0h32.86v28.84h-32.86v-28.84Zm36.85,0h32.86v28.84h-32.86v-28.84Zm36.85,0h32.86v28.84h-32.86v-28.84Zm36.85,0h32.86v28.84h-32.86v-28.84Zm36.85,0h32.86v28.84h-32.86v-28.84Zm36.85,0h32.86v28.84h-32.86v-28.84Zm36.85,0h32.86v28.84h-32.86v-28.84Zm36.85,0h32.86v28.84h-32.86v-28.84Zm36.85,0h32.86v28.84h-32.86v-28.84Zm36.85,0h32.86v28.84h-32.86v-28.84Zm36.85,0h32.86v28.84h-32.86v-28.84Zm36.85,0h32.86v28.84h-32.86v-28.84Zm36.85,0h32.86v28.84h-32.86v-28.84Zm36.85,0h32.86v28.84h-32.86v-28.84Zm36.85,0h32.86v28.84h-32.86v-28.84Zm36.85,0h32.86v28.84h-32.86v-28.84Zm36.85,0h32.86v28.84h-32.86v-28.84Zm36.85,0h32.86v28.84h-32.86v-28.84Zm0-4.76v-28.84h32.86v28.84h-32.86Zm36.85-28.84h32.86v28.84h-32.86v-28.84Zm0-4.76v-28.84h32.86v28.84h-32.86Zm0-33.6v-28.84h32.86v28.84h-32.86Zm0-33.6v-28.84h32.86v28.84h-32.86Zm0-33.6v-28.84h32.86v28.84h-32.86Zm0-33.6v-28.84h32.86v28.84h-32.86Zm0-33.6v-28.84h32.86v28.84h-32.86Zm0-33.6v-28.84h32.86v28.84h-32.86Zm0-33.6v-28.84h32.86v28.84h-32.86Zm0-33.6v-28.84h32.86v28.84h-32.86Zm0-33.6v-28.84h32.86v28.84h-32.86Zm0-33.6v-28.84h32.86v28.84h-32.86Zm0-33.6v-28.84h32.86v28.84h-32.86Zm0-33.6v-28.84h32.86v28.84h-32.86Zm0-33.6v-28.84h32.86v28.84h-32.86Zm0-33.6v-28.84h32.86v28.84h-32.86Zm-3.99,0h-32.86v-28.84h32.86v28.84Zm-36.85,0h-32.86v-28.84h32.86v28.84Zm-36.85,0h-32.86v-28.84h32.86v28.84Zm-36.85,0h-32.86v-28.84h32.86v28.84Zm-36.85,0h-32.86v-28.84h32.86v28.84Zm-36.85,0h-32.86v-28.84h32.86v28.84Zm-36.85,0h-32.86v-28.84h32.86v28.84Zm-36.85,0h-32.86v-28.84h32.86v28.84Zm-36.85,0h-32.86v-28.84h32.86v28.84Zm-36.85,0h-32.86v-28.84h32.86v28.84Zm-36.85,0h-32.86v-28.84h32.86v28.84Zm-36.85,0h-32.86v-28.84h32.86v28.84Zm-36.85,0h-32.86v-28.84h32.86v28.84Zm-36.85,0h-32.86v-28.84h32.86v28.84Zm-36.85,0h-32.86v-28.84h32.86v28.84Zm-36.85,0h-32.86v-28.84h32.86v28.84Zm-36.85,0h-32.86v-28.84h32.86v28.84Zm-36.85,0h-32.86v-28.84h32.86v28.84Zm-36.85,0h-32.86v-28.84h32.86v28.84Zm-36.85,0h-32.86v-28.84h32.86v28.84Zm-36.85,0h-32.86v-28.84h32.86v28.84Zm-36.85,0h-32.86v-28.84h32.86v28.84Zm-36.85,0h-32.86v-28.84h32.86v28.84Zm-36.85,0h-32.86v-28.84h32.86v28.84Zm-36.85,0h-32.86v-28.84h32.86v28.84Zm-36.85,0h-32.86v-28.84h32.86v28.84Zm-36.85,0h-32.86v-28.84h32.86v28.84Zm-36.85,0h-32.86v-28.84h32.86v28.84Zm-36.85,0h-32.86v-28.84h32.86v28.84Zm-36.85,0h-32.86v-28.84h32.86v28.84Zm-36.85,0h-32.86v-28.84h32.86v28.84Zm-36.85,0h-32.86v-28.84h32.86v28.84Zm-36.85,0h-32.86v-28.84h32.86v28.84Zm-36.85,0h-32.86v-28.84h32.86v28.84Zm-36.85,0h-32.86v-28.84h32.86v28.84Zm0,4.76v28.84h-32.86v-28.84h32.86Zm-36.85,28.84h-32.86v-28.84h32.86v28.84Zm0,4.76v28.84h-32.86v-28.84h32.86Zm0,33.6v28.84h-32.86v-28.84h32.86Zm0,33.6v28.84h-32.86v-28.84h32.86Zm0,33.6v28.84h-32.86v-28.84h32.86Zm0,33.6v28.84h-32.86v-28.84h32.86Zm0,33.6v28.84h-32.86v-28.84h32.86Zm0,33.6v28.84h-32.86v-28.84h32.86Zm0,33.6v28.84h-32.86v-28.84h32.86Zm0,33.6v28.84h-32.86v-28.84h32.86Zm0,33.6v28.84h-32.86v-28.84h32.86Zm0,33.6v28.84h-32.86v-28.84h32.86Zm0,33.6v28.84h-32.86v-28.84h32.86Zm0,33.6v28.84h-32.86v-28.84h32.86Zm0,33.6v28.84h-32.86v-28.84h32.86Zm0,33.6v28.84h-32.86v-28.84h32.86Zm3.99,0h32.86v28.84h-32.86v-28.84Zm32.86,33.6v28.84h-32.86v-28.84h32.86Zm3.99,0h32.86v28.84h-32.86v-28.84Zm36.85,0h32.86v28.84h-32.86v-28.84Zm36.85,0h32.86v28.84h-32.86v-28.84Zm36.85,0h32.86v28.84h-32.86v-28.84Zm36.85,0h32.86v28.84h-32.86v-28.84Zm36.85,0h32.86v28.84h-32.86v-28.84Zm36.85,0h32.86v28.84h-32.86v-28.84Zm36.85,0h32.86v28.84h-32.86v-28.84Zm36.85,0h32.86v28.84h-32.86v-28.84Zm36.85,0h32.86v28.84h-32.86v-28.84Zm36.85,0h32.86v28.84h-32.86v-28.84Zm36.85,0h32.86v28.84h-32.86v-28.84Zm36.85,0h32.86v28.84h-32.86v-28.84Zm36.85,0h32.86v28.84h-32.86v-28.84Zm36.85,0h32.86v28.84h-32.86v-28.84Zm36.85,0h32.86v28.84h-32.86v-28.84Zm36.85,0h32.86v28.84h-32.86v-28.84Zm36.85,0h32.86v28.84h-32.86v-28.84Zm36.85,0h32.86v28.84h-32.86v-28.84Zm36.85,0h32.86v28.84h-32.86v-28.84Zm36.85,0h32.86v28.84h-32.86v-28.84Zm36.85,0h32.86v28.84h-32.86v-28.84Zm36.85,0h32.86v28.84h-32.86v-28.84Zm36.85,0h32.86v28.84h-32.86v-28.84Zm36.85,0h32.86v28.84h-32.86v-28.84Zm36.85,0h32.86v28.84h-32.86v-28.84Zm36.85,0h32.86v28.84h-32.86v-28.84Zm36.85,0h32.86v28.84h-32.86v-28.84Zm36.85,0h32.86v28.84h-32.86v-28.84Zm36.85,0h32.86v28.84h-32.86v-28.84Zm36.85,0h32.86v28.84h-32.86v-28.84Zm36.85,0h32.86v28.84h-32.86v-28.84Zm36.85,0h32.86v28.84h-32.86v-28.84Zm36.85,0h32.86v28.84h-32.86v-28.84Zm36.85,0h32.86v28.84h-32.86v-28.84Zm0-4.76v-28.84h32.86v28.84h-32.86Zm36.85-28.84h32.86v28.84h-32.86v-28.84Zm0-4.76v-28.84h32.86v28.84h-32.86Zm0-33.6v-28.84h32.86v28.84h-32.86Zm0-33.6v-28.84h32.86v28.84h-32.86Zm0-33.6v-28.84h32.86v28.84h-32.86Zm0-33.6v-28.84h32.86v28.84h-32.86Zm0-33.6v-28.84h32.86v28.84h-32.86Zm0-33.6v-28.84h32.86v28.84h-32.86Zm0-33.6v-28.84h32.86v28.84h-32.86Zm0-33.6v-28.84h32.86v28.84h-32.86Zm0-33.6v-28.84h32.86v28.84h-32.86Zm0-33.6v-28.84h32.86v28.84h-32.86Zm0-33.6v-28.84h32.86v28.84h-32.86Zm0-33.6v-28.84h32.86v28.84h-32.86Zm0-33.6v-28.84h32.86v28.84h-32.86Zm0-33.6v-28.84h32.86v28.84h-32.86Zm0-33.6v-28.84h32.86v28.84h-32.86Zm0-33.6v-28.84h32.86v28.84h-32.86Zm-3.99,0h-32.86v-28.84h32.86v28.84Zm-36.85,0h-32.86v-28.84h32.86v28.84Zm-36.85,0h-32.86v-28.84h32.86v28.84Zm-36.85,0h-32.86v-28.84h32.86v28.84Zm-36.85,0h-32.86v-28.84h32.86v28.84Zm-36.85,0h-32.86v-28.84h32.86v28.84Zm-36.85,0h-32.86v-28.84h32.86v28.84Zm-36.85,0h-32.86v-28.84h32.86v28.84Zm-36.85,0h-32.86v-28.84h32.86v28.84Zm-36.85,0h-32.86v-28.84h32.86v28.84Zm-36.85,0h-32.86v-28.84h32.86v28.84Zm-36.85,0h-32.86v-28.84h32.86v28.84Zm-36.85,0h-32.86v-28.84h32.86v28.84Zm-36.85,0h-32.86v-28.84h32.86v28.84Zm-36.85,0h-32.86v-28.84h32.86v28.84Zm-36.85,0h-32.86v-28.84h32.86v28.84Zm-36.85,0h-32.86v-28.84h32.86v28.84Zm-36.85,0h-32.86v-28.84h32.86v28.84Zm-36.85,0h-32.86v-28.84h32.86v28.84Zm-36.85,0h-32.86v-28.84h32.86v28.84Zm-36.85,0h-32.86v-28.84h32.86v28.84Zm-36.85,0h-32.86v-28.84h32.86v28.84Zm-36.85,0h-32.86v-28.84h32.86v28.84Zm-36.85,0h-32.86v-28.84h32.86v28.84Zm-36.85,0h-32.86v-28.84h32.86v28.84Zm-36.85,0h-32.86v-28.84h32.86v28.84Zm-36.85,0h-32.86v-28.84h32.86v28.84Zm-36.85,0h-32.86v-28.84h32.86v28.84Zm-36.85,0h-32.86v-28.84h32.86v28.84Zm-36.85,0h-32.86v-28.84h32.86v28.84Zm-36.85,0h-32.86v-28.84h32.86v28.84Zm-36.85,0h-32.86v-28.84h32.86v28.84Zm-36.85,0h-32.86v-28.84h32.86v28.84Zm-36.85,0h-32.86v-28.84h32.86v28.84Zm-36.85,0h-32.86v-28.84h32.86v28.84Zm-36.85,0h-32.86v-28.84h32.86v28.84Zm-36.85,0h-32.86v-28.84h32.86v28.84Zm0,4.76v28.84h-32.86v-28.84h32.86Zm-36.85,28.84h-32.86v-28.84h32.86v28.84Zm0,4.76v28.84h-32.86v-28.84h32.86Zm0,33.6v28.84h-32.86v-28.84h32.86Zm0,33.6v28.84h-32.86v-28.84h32.86Zm0,33.6v28.84h-32.86v-28.84h32.86Zm0,33.6v28.84h-32.86v-28.84h32.86Zm0,33.6v28.84h-32.86v-28.84h32.86Zm0,33.6v28.84h-32.86v-28.84h32.86Zm0,33.6v28.84h-32.86v-28.84h32.86Zm0,33.6v28.84h-32.86v-28.84h32.86Zm0,33.6v28.84h-32.86v-28.84h32.86Zm0,33.6v28.84h-32.86v-28.84h32.86Zm0,33.6v28.84h-32.86v-28.84h32.86Zm0,33.6v28.84h-32.86v-28.84h32.86Zm0,33.6v28.84h-32.86v-28.84h32.86Zm0,33.6v28.84h-32.86v-28.84h32.86Zm0,33.6v28.84h-32.86v-28.84h32.86Zm0,33.6v28.84h-32.86v-28.84h32.86Zm3.99,0h32.86v28.84h-32.86v-28.84Zm32.86,33.6v28.84h-32.86v-28.84h32.86Zm3.99,0h32.86v28.84h-32.86v-28.84Zm36.85,0h32.86v28.84h-32.86v-28.84Zm36.85,0h32.86v28.84h-32.86v-28.84Zm36.85,0h32.86v28.84h-32.86v-28.84Zm36.85,0h32.86v28.84h-32.86v-28.84Zm36.85,0h32.86v28.84h-32.86v-28.84Zm36.85,0h32.86v28.84h-32.86v-28.84Zm36.85,0h32.86v28.84h-32.86v-28.84Zm36.85,0h32.86v28.84h-32.86v-28.84Zm36.85,0h32.86v28.84h-32.86v-28.84Zm36.85,0h32.86v28.84h-32.86v-28.84Zm36.85,0h32.86v28.84h-32.86v-28.84Zm36.85,0h32.86v28.84h-32.86v-28.84Zm36.85,0h32.86v28.84h-32.86v-28.84Zm36.85,0h32.86v28.84h-32.86v-28.84Zm36.85,0h32.86v28.84h-32.86v-28.84Zm36.85,0h32.86v28.84h-32.86v-28.84Zm36.85,0h32.86v28.84h-32.86v-28.84Zm36.85,0h32.86v28.84h-32.86v-28.84Zm36.85,0h32.86v28.84h-32.86v-28.84Zm36.85,0h32.86v28.84h-32.86v-28.84Zm36.85,0h32.86v28.84h-32.86v-28.84Zm36.85,0h32.86v28.84h-32.86v-28.84Zm36.85,0h32.86v28.84h-32.86v-28.84Zm36.85,0h32.86v28.84h-32.86v-28.84Zm36.85,0h32.86v28.84h-32.86v-28.84Zm36.85,0h32.86v28.84h-32.86v-28.84Zm36.85,0h32.86v28.84h-32.86v-28.84Zm36.85,0h32.86v28.84h-32.86v-28.84Zm36.85,0h32.86v28.84h-32.86v-28.84Zm36.85,0h32.86v28.84h-32.86v-28.84Zm36.85,0h32.86v28.84h-32.86v-28.84Zm36.85,0h32.86v28.84h-32.86v-28.84Zm36.85,0h32.86v28.84h-32.86v-28.84Zm36.85,0h32.86v28.84h-32.86v-28.84Zm36.85,0h32.86v28.84h-32.86v-28.84Zm36.85,0h32.86v28.84h-32.86v-28.84Zm0-4.76v-28.84h32.86v28.84h-32.86Zm36.85-28.84h32.86v28.84h-32.86v-28.84Zm0-4.76v-28.84h32.86v28.84h-32.86Zm0-33.6v-28.84h32.86v28.84h-32.86Zm0-33.6v-28.84h32.86v28.84h-32.86Zm0-33.6v-28.84h32.86v28.84h-32.86Zm0-33.6v-28.84h32.86v28.84h-32.86Zm0-33.6v-28.84h32.86v28.84h-32.86Zm0-33.6v-28.84h32.86v28.84h-32.86Zm0-33.6v-28.84h32.86v28.84h-32.86Zm0-33.6v-28.84h32.86v28.84h-32.86Zm0-33.6v-28.84h32.86v28.84h-32.86Zm0-33.6v-28.84h32.86v28.84h-32.86Zm0-33.6v-28.84h32.86v28.84h-32.86Zm0-33.6v-28.84h32.86v28.84h-32.86Zm0-33.6v-28.84h32.86v28.84h-32.86Zm0-33.6v-28.84h32.86v28.84h-32.86Zm0-33.6v-28.84h32.86v28.84h-32.86Zm0-33.6v-28.84h32.86v28.84h-32.86Zm0-33.6v-28.84h32.86v28.84h-32.86Zm0-33.6v-28.84h32.86v28.84h-32.86Zm-3.99,0h-32.86v-28.84h32.86v28.84Zm-36.85,0h-32.86v-28.84h32.86v28.84Zm-36.85,0h-32.86v-28.84h32.86v28.84Zm-36.85,0h-32.86v-28.84h32.86v28.84Zm-36.85,0h-32.86v-28.84h32.86v28.84Zm-36.85,0h-32.86v-28.84h32.86v28.84Zm-36.85,0h-32.86v-28.84h32.86v28.84Zm-36.85,0h-32.86v-28.84h32.86v28.84Zm-36.85,0h-32.86v-28.84h32.86v28.84Zm-36.85,0h-32.86v-28.84h32.86v28.84Zm-36.85,0h-32.86v-28.84h32.86v28.84Zm-36.85,0h-32.86v-28.84h32.86v28.84Zm-36.85,0h-32.86v-28.84h32.86v28.84Zm-36.85,0h-32.86v-28.84h32.86v28.84Zm-36.85,0h-32.86v-28.84h32.86v28.84Zm-36.85,0h-32.86v-28.84h32.86v28.84Zm-36.85,0h-32.86v-28.84h32.86v28.84Zm-36.85,0h-32.86v-28.84h32.86v28.84Zm-36.85,0h-32.86v-28.84h32.86v28.84Zm-36.85,0h-32.86v-28.84h32.86v28.84Zm-36.85,0h-32.86v-28.84h32.86v28.84Zm-36.85,0h-32.86v-28.84h32.86v28.84Zm-36.85,0h-32.86v-28.84h32.86v28.84Zm-36.85,0h-32.86v-28.84h32.86v28.84Zm-36.85,0h-32.86v-28.84h32.86v28.84Zm-36.85,0h-32.86v-28.84h32.86v28.84Zm-36.85,0h-32.86v-28.84h32.86v28.84Zm-36.85,0h-32.86v-28.84h32.86v28.84Zm-36.85,0h-32.86v-28.84h32.86v28.84Zm-36.85,0h-32.86v-28.84h32.86v28.84Zm-36.85,0h-32.86v-28.84h32.86v28.84Zm-36.85,0h-32.86v-28.84h32.86v28.84Zm-36.85,0h-32.86v-28.84h32.86v28.84Zm-36.85,0h-32.86v-28.84h32.86v28.84Zm-36.85,0h-32.86v-28.84h32.86v28.84Zm-36.85,0h-32.86v-28.84h32.86v28.84Zm-36.85,0h-32.86v-28.84h32.86v28.84Zm-36.85,0h-32.86v-28.84h32.86v28.84Zm-36.85,0h-32.86v-28.84h32.86v28.84Zm0,4.76v28.84h-32.86v-28.84h32.86Zm-36.85,28.84h-32.86v-28.84h32.86v28.84Zm0,4.76v28.84h-32.86v-28.84h32.86Zm0,33.6v28.84h-32.86v-28.84h32.86Zm0,33.6v28.84h-32.86v-28.84h32.86Zm0,33.6v28.84h-32.86v-28.84h32.86Zm0,33.6v28.84h-32.86v-28.84h32.86Zm0,33.6v28.84h-32.86v-28.84h32.86Zm0,33.6v28.84h-32.86v-28.84h32.86Zm0,33.6v28.84h-32.86v-28.84h32.86Zm0,33.6v28.84h-32.86v-28.84h32.86Zm0,33.6v28.84h-32.86v-28.84h32.86Zm0,33.6v28.84h-32.86v-28.84h32.86Zm0,33.6v28.84h-32.86v-28.84h32.86Zm0,33.6v28.84h-32.86v-28.84h32.86Zm0,33.6v28.84h-32.86v-28.84h32.86Zm0,33.6v28.84h-32.86v-28.84h32.86Zm0,33.6v28.84h-32.86v-28.84h32.86Zm0,33.6v28.84h-32.86v-28.84h32.86Zm0,33.6v28.84h-32.86v-28.84h32.86Zm0,33.6v28.84h-32.86v-28.84h32.86Zm3.99,0h32.86v28.84h-32.86v-28.84Zm32.86,33.6v28.84h-32.86v-28.84h32.86Zm3.99,0h32.86v28.84h-32.86v-28.84Zm36.85,0h32.86v28.84h-32.86v-28.84Zm36.85,0h32.86v28.84h-32.86v-28.84Zm36.85,0h32.86v28.84h-32.86v-28.84Zm36.85,0h32.86v28.84h-32.86v-28.84Zm36.85,0h32.86v28.84h-32.86v-28.84Zm36.85,0h32.86v28.84h-32.86v-28.84Zm36.85,0h32.86v28.84h-32.86v-28.84Zm36.85,0h32.86v28.84h-32.86v-28.84Zm36.85,0h32.86v28.84h-32.86v-28.84Zm36.85,0h32.86v28.84h-32.86v-28.84Zm36.85,0h32.86v28.84h-32.86v-28.84Zm36.85,0h32.86v28.84h-32.86v-28.84Zm36.85,0h32.86v28.84h-32.86v-28.84Zm36.85,0h32.86v28.84h-32.86v-28.84Zm36.85,0h32.86v28.84h-32.86v-28.84Zm36.85,0h32.86v28.84h-32.86v-28.84Zm36.85,0h32.86v28.84h-32.86v-28.84Zm36.85,0h32.86v28.84h-32.86v-28.84Zm36.85,0h32.86v28.84h-32.86v-28.84Zm36.85,0h32.86v28.84h-32.86v-28.84Zm36.85,0h32.86v28.84h-32.86v-28.84Zm36.85,0h32.86v28.84h-32.86v-28.84Zm36.85,0h32.86v28.84h-32.86v-28.84Zm36.85,0h32.86v28.84h-32.86v-28.84Zm36.85,0h32.86v28.84h-32.86v-28.84Zm36.85,0h32.86v28.84h-32.86v-28.84Zm36.85,0h32.86v28.84h-32.86v-28.84Zm36.85,0h32.86v28.84h-32.86v-28.84Zm36.85,0h32.86v28.84h-32.86v-28.84Zm36.85,0h32.86v28.84h-32.86v-28.84Zm36.85,0h32.86v28.84h-32.86v-28.84Zm36.85,0h32.86v28.84h-32.86v-28.84Zm36.85,0h32.86v28.84h-32.86v-28.84Zm36.85,0h32.86v28.84h-32.86v-28.84Zm36.85,0h32.86v28.84h-32.86v-28.84Zm36.85,0h32.86v28.84h-32.86v-28.84Zm36.85,0h32.86v28.84h-32.86v-28.84Zm36.85,0h32.86v28.84h-32.86v-28.84Zm0-4.76v-28.84h32.86v28.84h-32.86Zm36.85-28.84h32.86v28.84h-32.86v-28.84Zm0-4.76v-28.84h32.86v28.84h-32.86Zm0-33.6v-28.84h32.86v28.84h-32.86Zm0-33.6v-28.84h32.86v28.84h-32.86Zm0-33.6v-28.84h32.86v28.84h-32.86Zm0-33.6v-28.84h32.86v28.84h-32.86Zm0-33.6v-28.84h32.86v28.84h-32.86Zm0-33.6v-28.84h32.86v28.84h-32.86Zm0-33.6v-28.84h32.86v28.84h-32.86Zm0-33.6v-28.84h32.86v28.84h-32.86Zm0-33.6v-28.84h32.86v28.84h-32.86Zm0-33.6v-28.84h32.86v28.84h-32.86Zm0-33.6v-28.84h32.86v28.84h-32.86Zm0-33.6v-28.84h32.86v28.84h-32.86Zm0-33.6v-28.84h32.86v28.84h-32.86Zm0-33.6v-28.84h32.86v28.84h-32.86Zm0-33.6v-28.84h32.86v28.84h-32.86Zm0-33.6v-28.84h32.86v28.84h-32.86Zm0-33.6v-28.84h32.86v28.84h-32.86Zm0-33.6v-28.84h32.86v28.84h-32.86Zm0-33.6v-28.84h32.86v28.84h-32.86Zm0-33.6v-28.84h32.86v28.84h-32.86Zm-3.99,0h-32.86v-28.84h32.86v28.84Zm-36.85,0h-32.86v-28.84h32.86v28.84Zm-36.85,0h-32.86v-28.84h32.86v28.84Zm-36.85,0h-32.86v-28.84h32.86v28.84Zm-36.85,0h-32.86v-28.84h32.86v28.84Zm-36.85,0h-32.86v-28.84h32.86v28.84Zm-36.85,0h-32.86v-28.84h32.86v28.84Zm-36.85,0h-32.86v-28.84h32.86v28.84Zm-36.85,0h-32.86v-28.84h32.86v28.84Zm-36.85,0h-32.86v-28.84h32.86v28.84Zm-36.85,0h-32.86v-28.84h32.86v28.84Zm-36.85,0h-32.86v-28.84h32.86v28.84Zm-36.85,0h-32.86v-28.84h32.86v28.84Zm-36.85,0h-32.86v-28.84h32.86v28.84Zm-36.85,0h-32.86v-28.84h32.86v28.84Zm-36.85,0h-32.86v-28.84h32.86v28.84Zm-36.85,0h-32.86v-28.84h32.86v28.84Zm-36.85,0h-32.86v-28.84h32.86v28.84Zm-36.85,0h-32.86v-28.84h32.86v28.84Zm-36.85,0h-32.86v-28.84h32.86v28.84Zm-36.85,0h-32.86v-28.84h32.86v28.84Zm-36.85,0h-32.86v-28.84h32.86v28.84Zm-36.85,0h-32.86v-28.84h32.86v28.84Zm-36.85,0h-32.86v-28.84h32.86v28.84Zm-36.85,0h-32.86v-28.84h32.86v28.84Zm-36.85,0h-32.86v-28.84h32.86v28.84Zm-36.85,0h-32.86v-28.84h32.86v28.84Zm-36.85,0h-32.86v-28.84h32.86v28.84Zm-36.85,0h-32.86v-28.84h32.86v28.84Zm-36.85,0h-32.86v-28.84h32.86v28.84Zm-36.85,0h-32.86v-28.84h32.86v28.84Zm-36.85,0h-32.86v-28.84h32.86v28.84Zm-36.85,0h-32.86v-28.84h32.86v28.84Zm-36.85,0h-32.86v-28.84h32.86v28.84Zm-36.85,0h-32.86v-28.84h32.86v28.84Zm-36.85,0h-32.86v-28.84h32.86v28.84Zm-36.85,0h-32.86v-28.84h32.86v28.84Zm-36.85,0h-32.86v-28.84h32.86v28.84Zm-36.85,0h-32.86v-28.84h32.86v28.84Zm-36.85,0h-32.86v-28.84h32.86v28.84Zm-36.85,0h-32.86v-28.84h32.86v28.84Zm0,4.76v28.84h-32.86v-28.84h32.86Zm-36.85,28.84h-32.86v-28.84h32.86v28.84Zm0,4.76v28.84h-32.86v-28.84h32.86Zm0,33.6v28.84h-32.86v-28.84h32.86Zm0,33.6v28.84h-32.86v-28.84h32.86Zm0,33.6v28.84h-32.86v-28.84h32.86Zm0,33.6v28.84h-32.86v-28.84h32.86Zm0,33.6v28.84h-32.86v-28.84h32.86Zm0,33.6v28.84h-32.86v-28.84h32.86Zm0,33.6v28.84h-32.86v-28.84h32.86Zm0,33.6v28.84h-32.86v-28.84h32.86Zm0,33.6v28.84h-32.86v-28.84h32.86Zm0,33.6v28.84h-32.86v-28.84h32.86Zm0,33.6v28.84h-32.86v-28.84h32.86Zm0,33.6v28.84h-32.86v-28.84h32.86Zm0,33.6v28.84h-32.86v-28.84h32.86Zm0,33.6v28.84h-32.86v-28.84h32.86Zm0,33.6v28.84h-32.86v-28.84h32.86Zm0,33.6v28.84h-32.86v-28.84h32.86Zm0,33.6v28.84h-32.86v-28.84h32.86Zm0,33.6v28.84h-32.86v-28.84h32.86Zm0,33.6v28.84h-32.86v-28.84h32.86Zm0,33.6v28.84h-32.86v-28.84h32.86Zm3.99,0h32.86v28.84h-32.86v-28.84Zm32.86,33.6v28.84h-32.86v-28.84h32.86Zm3.99,0h32.86v28.84h-32.86v-28.84Zm36.85,0h32.86v28.84h-32.86v-28.84Zm36.85,0h32.86v28.84h-32.86v-28.84Zm36.85,0h32.86v28.84h-32.86v-28.84Zm36.85,0h32.86v28.84h-32.86v-28.84Zm36.85,0h32.86v28.84h-32.86v-28.84Zm36.85,0h32.86v28.84h-32.86v-28.84Zm36.85,0h32.86v28.84h-32.86v-28.84Zm36.85,0h32.86v28.84h-32.86v-28.84Zm36.85,0h32.86v28.84h-32.86v-28.84Zm36.85,0h32.86v28.84h-32.86v-28.84Zm36.85,0h32.86v28.84h-32.86v-28.84Zm36.85,0h32.86v28.84h-32.86v-28.84Zm36.85,0h32.86v28.84h-32.86v-28.84Zm36.85,0h32.86v28.84h-32.86v-28.84Zm36.85,0h32.86v28.84h-32.86v-28.84Zm36.85,0h32.86v28.84h-32.86v-28.84Zm36.85,0h32.86v28.84h-32.86v-28.84Zm36.85,0h32.86v28.84h-32.86v-28.84Zm36.85,0h32.86v28.84h-32.86v-28.84Zm36.85,0h32.86v28.84h-32.86v-28.84Zm36.85,0h32.86v28.84h-32.86v-28.84Zm36.85,0h32.86v28.84h-32.86v-28.84Zm36.85,0h32.86v28.84h-32.86v-28.84Zm36.85,0h32.86v28.84h-32.86v-28.84Zm36.85,0h32.86v28.84h-32.86v-28.84Zm36.85,0h32.86v28.84h-32.86v-28.84Zm36.85,0h32.86v28.84h-32.86v-28.84Zm36.85,0h32.86v28.84h-32.86v-28.84Zm36.85,0h32.86v28.84h-32.86v-28.84Zm36.85,0h32.86v28.84h-32.86v-28.84Zm36.85,0h32.86v28.84h-32.86v-28.84Zm36.85,0h32.86v28.84h-32.86v-28.84Zm36.85,0h32.86v28.84h-32.86v-28.84Zm36.85,0h32.86v28.84h-32.86v-28.84Zm36.85,0h32.86v28.84h-32.86v-28.84Zm36.85,0h32.86v28.84h-32.86v-28.84Zm36.85,0h32.86v28.84h-32.86v-28.84Zm36.85,0h32.86v28.84h-32.86v-28.84Zm36.85,0h32.86v28.84h-32.86v-28.84Zm36.85,0h32.86v28.84h-32.86v-28.84Zm0-4.76v-28.84h32.86v28.84h-32.86Zm36.85-28.84h32.86v28.84h-32.86v-28.84Zm0-4.76v-28.84h32.86v28.84h-32.86Zm0-33.6v-28.84h32.86v28.84h-32.86Zm0-33.6v-28.84h32.86v28.84h-32.86Zm0-33.6v-28.84h32.86v28.84h-32.86Zm0-33.6v-28.84h32.86v28.84h-32.86Zm0-33.6v-28.84h32.86v28.84h-32.86Zm0-33.6v-28.84h32.86v28.84h-32.86Zm0-33.6v-28.84h32.86v28.84h-32.86Zm0-33.6v-28.84h32.86v28.84h-32.86Zm0-33.6v-28.84h32.86v28.84h-32.86Zm0-33.6v-28.84h32.86v28.84h-32.86Zm0-33.6v-28.84h32.86v28.84h-32.86Zm0-33.6v-28.84h32.86v28.84h-32.86Zm0-33.6v-28.84h32.86v28.84h-32.86Zm0-33.6v-28.84h32.86v28.84h-32.86Zm0-33.6v-28.84h32.86v28.84h-32.86Zm0-33.6v-28.84h32.86v28.84h-32.86Zm0-33.6v-28.84h32.86v28.84h-32.86Zm0-33.6v-28.84h32.86v28.84h-32.86Zm0-33.6v-28.84h32.86v28.84h-32.86Zm0-33.6v-28.84h32.86v28.84h-32.86Zm0-33.6v-28.84h32.86v28.84h-32.86Zm0-33.6v-28.84h32.86v28.84h-32.86Zm-3.99,0h-32.86v-28.84h32.86v28.84Zm-36.85,0h-32.86v-28.84h32.86v28.84Zm-36.85,0h-32.86v-28.84h32.86v28.84Zm-36.85,0h-32.86v-28.84h32.86v28.84Zm-36.85,0h-32.86v-28.84h32.86v28.84Zm-36.85,0h-32.86v-28.84h32.86v28.84Zm-36.85,0h-32.86v-28.84h32.86v28.84Zm-36.85,0h-32.86v-28.84h32.86v28.84Zm-36.85,0h-32.86v-28.84h32.86v28.84Zm-36.85,0h-32.86v-28.84h32.86v28.84Zm-36.85,0h-32.86v-28.84h32.86v28.84Zm-36.85,0h-32.86v-28.84h32.86v28.84Zm-36.85,0h-32.86v-28.84h32.86v28.84Zm-36.85,0h-32.86v-28.84h32.86v28.84Zm-36.85,0h-32.86v-28.84h32.86v28.84Zm-36.85,0h-32.86v-28.84h32.86v28.84Zm-36.85,0h-32.86v-28.84h32.86v28.84Zm-36.85,0h-32.86v-28.84h32.86v28.84Zm-36.85,0h-32.86v-28.84h32.86v28.84Zm-36.85,0h-32.86v-28.84h32.86v28.84Zm-36.85,0h-32.86v-28.84h32.86v28.84Zm-36.85,0h-32.86v-28.84h32.86v28.84Zm-36.85,0h-32.86v-28.84h32.86v28.84Zm-36.85,0h-32.86v-28.84h32.86v28.84Zm-36.85,0h-32.86v-28.84h32.86v28.84Zm-36.85,0h-32.86v-28.84h32.86v28.84Zm-36.85,0h-32.86v-28.84h32.86v28.84Zm-36.85,0h-32.86v-28.84h32.86v28.84Zm-36.85,0h-32.86v-28.84h32.86v28.84Zm-36.85,0h-32.86v-28.84h32.86v28.84Zm-36.85,0h-32.86v-28.84h32.86v28.84Zm-36.85,0h-32.86v-28.84h32.86v28.84Zm-36.85,0h-32.86v-28.84h32.86v28.84Zm-36.85,0h-32.86v-28.84h32.86v28.84Zm-36.85,0h-32.86v-28.84h32.86v28.84Zm-36.85,0h-32.86v-28.84h32.86v28.84Zm-36.85,0h-32.86v-28.84h32.86v28.84Zm-36.85,0h-32.86v-28.84h32.86v28.84Zm-36.85,0h-32.86v-28.84h32.86v28.84Zm-36.85,0h-32.86v-28.84h32.86v28.84Zm-36.85,0h-32.86v-28.84h32.86v28.84Zm-36.85,0h-32.86v-28.84h32.86v28.84Zm-36.85,0h-32.86v-28.84h32.86v28.84Zm0,4.76v28.84h-32.86v-28.84h32.86Zm-36.85,28.84h-32.86v-28.84h32.86v28.84Zm0,4.76v28.84h-32.86v-28.84h32.86Zm0,33.6v28.84h-32.86v-28.84h32.86Zm0,33.6v28.84h-32.86v-28.84h32.86Zm0,33.6v28.84h-32.86v-28.84h32.86Zm0,33.6v28.84h-32.86v-28.84h32.86Zm0,33.6v28.84h-32.86v-28.84h32.86Zm0,33.6v28.84h-32.86v-28.84h32.86Zm0,33.6v28.84h-32.86v-28.84h32.86Zm0,33.6v28.84h-32.86v-28.84h32.86Zm0,33.6v28.84h-32.86v-28.84h32.86Zm0,33.6v28.84h-32.86v-28.84h32.86Zm0,33.6v28.84h-32.86v-28.84h32.86Zm0,33.6v28.84h-32.86v-28.84h32.86Zm0,33.6v28.84h-32.86v-28.84h32.86Zm0,33.6v28.84h-32.86v-28.84h32.86Zm0,33.6v28.84h-32.86v-28.84h32.86Zm0,33.6v28.84h-32.86v-28.84h32.86Zm0,33.6v28.84h-32.86v-28.84h32.86Zm0,33.6v28.84h-32.86v-28.84h32.86Zm0,33.6v28.84h-32.86v-28.84h32.86Zm0,33.6v28.84h-32.86v-28.84h32.86Zm0,33.6v28.84h-32.86v-28.84h32.86Zm0,33.6v28.84h-32.86v-28.84h32.86Zm3.99,0h32.86v28.84h-32.86v-28.84Zm32.86,33.6v28.84h-32.86v-28.84h32.86Zm3.99,0h32.86v28.84h-32.86v-28.84Zm36.85,0h32.86v28.84h-32.86v-28.84Zm36.85,0h32.86v28.84h-32.86v-28.84Zm36.85,0h32.86v28.84h-32.86v-28.84Zm36.85,0h32.86v28.84h-32.86v-28.84Zm36.85,0h32.86v28.84h-32.86v-28.84Zm36.85,0h32.86v28.84h-32.86v-28.84Zm36.85,0h32.86v28.84h-32.86v-28.84Zm36.85,0h32.86v28.84h-32.86v-28.84Zm36.85,0h32.86v28.84h-32.86v-28.84Zm36.85,0h32.86v28.84h-32.86v-28.84Zm36.85,0h32.86v28.84h-32.86v-28.84Zm36.85,0h32.86v28.84h-32.86v-28.84Zm36.85,0h32.86v28.84h-32.86v-28.84Zm36.85,0h32.86v28.84h-32.86v-28.84Zm36.85,0h32.86v28.84h-32.86v-28.84Zm36.85,0h32.86v28.84h-32.86v-28.84Zm36.85,0h32.86v28.84h-32.86v-28.84Zm36.85,0h32.86v28.84h-32.86v-28.84Zm36.85,0h32.86v28.84h-32.86v-28.84Zm36.85,0h32.86v28.84h-32.86v-28.84Zm36.85,0h32.86v28.84h-32.86v-28.84Zm36.85,0h32.86v28.84h-32.86v-28.84Zm36.85,0h32.86v28.84h-32.86v-28.84Zm36.85,0h32.86v28.84h-32.86v-28.84Zm36.85,0h32.86v28.84h-32.86v-28.84Zm36.85,0h32.86v28.84h-32.86v-28.84Zm36.85,0h32.86v28.84h-32.86v-28.84Zm36.85,0h32.86v28.84h-32.86v-28.84Zm36.85,0h32.86v28.84h-32.86v-28.84Zm36.85,0h32.86v28.84h-32.86v-28.84Zm36.85,0h32.86v28.84h-32.86v-28.84Zm36.85,0h32.86v28.84h-32.86v-28.84Zm36.85,0h32.86v28.84h-32.86v-28.84Zm36.85,0h32.86v28.84h-32.86v-28.84Zm36.85,0h32.86v28.84h-32.86v-28.84Zm36.85,0h32.86v28.84h-32.86v-28.84Zm36.85,0h32.86v28.84h-32.86v-28.84Zm36.85,0h32.86v28.84h-32.86v-28.84Zm36.85,0h32.86v28.84h-32.86v-28.84Zm36.85,0h32.86v28.84h-32.86v-28.84Zm36.85,0h32.86v28.84h-32.86v-28.84Zm36.85,0h32.86v28.84h-32.86v-28.84Zm0-4.76v-28.84h32.86v28.84h-32.86Zm36.85-28.84h32.86v28.84h-32.86v-28.84Zm0-4.76v-28.84h32.86v28.84h-32.86Zm0-33.6v-28.84h32.86v28.84h-32.86Zm0-33.6v-28.84h32.86v28.84h-32.86Zm0-33.6v-28.84h32.86v28.84h-32.86Zm0-33.6v-28.84h32.86v28.84h-32.86Zm0-33.6v-28.84h32.86v28.84h-32.86Zm0-33.6v-28.84h32.86v28.84h-32.86Zm0-33.6v-28.84h32.86v28.84h-32.86Zm0-33.6v-28.84h32.86v28.84h-32.86Zm0-33.6v-28.84h32.86v28.84h-32.86Zm0-33.6v-28.84h32.86v28.84h-32.86Zm0-33.6v-28.84h32.86v28.84h-32.86Zm0-33.6v-28.84h32.86v28.84h-32.86Zm0-33.6v-28.84h32.86v28.84h-32.86Zm0-33.6v-28.84h32.86v28.84h-32.86Zm0-33.6v-28.84h32.86v28.84h-32.86Zm0-33.6v-28.84h32.86v28.84h-32.86Zm0-33.6v-28.84h32.86v28.84h-32.86Zm0-33.6v-28.84h32.86v28.84h-32.86Zm0-33.6v-28.84h32.86v28.84h-32.86Zm0-33.6v-28.84h32.86v28.84h-32.86Zm0-33.6v-28.84h32.86v28.84h-32.86Zm0-33.6v-28.84h32.86v28.84h-32.86Zm0-33.6v-28.84h32.86v28.84h-32.86Zm0-33.6v-28.84h32.86v28.84h-32.86Zm-3.99,0h-32.86v-28.84h32.86v28.84Zm-36.85,0h-32.86v-28.84h32.86v28.84Zm-36.85,0h-32.86v-28.84h32.86v28.84Zm-36.85,0h-32.86v-28.84h32.86v28.84Zm-36.85,0h-32.86v-28.84h32.86v28.84Zm-36.85,0h-32.86v-28.84h32.86v28.84Zm-36.85,0h-32.86v-28.84h32.86v28.84Zm-36.85,0h-32.86v-28.84h32.86v28.84Zm-36.85,0h-32.86v-28.84h32.86v28.84Zm-36.85,0h-32.86v-28.84h32.86v28.84Zm-36.85,0h-32.86v-28.84h32.86v28.84Zm-36.85,0h-32.86v-28.84h32.86v28.84Zm-36.85,0h-32.86v-28.84h32.86v28.84Zm-36.85,0h-32.86v-28.84h32.86v28.84Zm-36.85,0h-32.86v-28.84h32.86v28.84Zm-36.85,0h-32.86v-28.84h32.86v28.84Zm-36.85,0h-32.86v-28.84h32.86v28.84Zm-36.85,0h-32.86v-28.84h32.86v28.84Zm-36.85,0h-32.86v-28.84h32.86v28.84Zm-36.85,0h-32.86v-28.84h32.86v28.84Zm-36.85,0h-32.86v-28.84h32.86v28.84Zm-36.85,0h-32.86v-28.84h32.86v28.84Zm-36.85,0h-32.86v-28.84h32.86v28.84Zm-36.85,0h-32.86v-28.84h32.86v28.84Zm-36.85,0h-32.86v-28.84h32.86v28.84Zm-36.85,0h-32.86v-28.84h32.86v28.84Zm-36.85,0h-32.86v-28.84h32.86v28.84Zm-36.85,0h-32.86v-28.84h32.86v28.84Zm-36.85,0h-32.86v-28.84h32.86v28.84Zm-36.85,0h-32.86v-28.84h32.86v28.84Zm-36.85,0h-32.86v-28.84h32.86v28.84Zm-36.85,0h-32.86v-28.84h32.86v28.84Zm-36.85,0h-32.86v-28.84h32.86v28.84Zm-36.85,0h-32.86v-28.84h32.86v28.84Zm-36.85,0h-32.86v-28.84h32.86v28.84Zm-36.85,0h-32.86v-28.84h32.86v28.84Zm-36.85,0h-32.86v-28.84h32.86v28.84Zm-36.85,0h-32.86v-28.84h32.86v28.84Zm-36.85,0h-32.86v-28.84h32.86v28.84Zm-36.85,0h-32.86v-28.84h32.86v28.84Zm-36.85,0h-32.86v-28.84h32.86v28.84Zm-36.85,0h-32.86v-28.84h32.86v28.84Zm-36.85,0h-32.86v-28.84h32.86v28.84Zm-36.85,0h-32.86v-28.84h32.86v28.84Zm-36.85,0h-32.86v-28.84h32.86v28.84Zm0,4.76v28.84h-32.86v-28.84h32.86Zm-36.85,28.84h-32.86v-28.84h32.86v28.84Zm0,4.76v28.84h-32.86v-28.84h32.86Zm0,33.6v28.84h-32.86v-28.84h32.86Zm0,33.6v28.84h-32.86v-28.84h32.86Zm0,33.6v28.84h-32.86v-28.84h32.86Zm0,33.6v28.84h-32.86v-28.84h32.86Zm0,33.6v28.84h-32.86v-28.84h32.86Zm0,33.6v28.84h-32.86v-28.84h32.86Zm0,33.6v28.84h-32.86v-28.84h32.86Zm0,33.6v28.84h-32.86v-28.84h32.86Zm0,33.6v28.84h-32.86v-28.84h32.86Zm0,33.6v28.84h-32.86v-28.84h32.86Zm0,33.6v28.84h-32.86v-28.84h32.86Zm0,33.6v28.84h-32.86v-28.84h32.86Zm0,33.6v28.84h-32.86v-28.84h32.86Zm0,33.6v28.84h-32.86v-28.84h32.86Zm0,33.6v28.84h-32.86v-28.84h32.86Zm0,33.6v28.84h-32.86v-28.84h32.86Zm0,33.6v28.84h-32.86v-28.84h32.86Zm0,33.6v28.84h-32.86v-28.84h32.86Zm0,33.6v28.84h-32.86v-28.84h32.86Zm0,33.6v28.84h-32.86v-28.84h32.86Zm0,33.6v28.84h-32.86v-28.84h32.86Zm0,33.6v28.84h-32.86v-28.84h32.86Zm0,33.6v28.84h-32.86v-28.84h32.86Zm0,33.6v28.84h-32.86v-28.84h32.86Zm3.99,0h32.86v28.84h-32.86v-28.84Zm32.86,33.6v28.84h-32.86v-28.84h32.86Zm3.99,0h32.86v28.84h-32.86v-28.84Zm36.85,0h32.86v28.84h-32.86v-28.84Zm36.85,0h32.86v28.84h-32.86v-28.84Zm36.85,0h32.86v28.84h-32.86v-28.84Zm36.85,0h32.86v28.84h-32.86v-28.84Zm36.85,0h32.86v28.84h-32.86v-28.84Zm36.85,0h32.86v28.84h-32.86v-28.84Zm36.85,0h32.86v28.84h-32.86v-28.84Zm36.85,0h32.86v28.84h-32.86v-28.84Zm36.85,0h32.86v28.84h-32.86v-28.84Zm36.85,0h32.86v28.84h-32.86v-28.84Zm36.85,0h32.86v28.84h-32.86v-28.84Zm36.85,0h32.86v28.84h-32.86v-28.84Zm36.85,0h32.86v28.84h-32.86v-28.84Zm36.85,0h32.86v28.84h-32.86v-28.84Zm36.85,0h32.86v28.84h-32.86v-28.84Zm36.85,0h32.86v28.84h-32.86v-28.84Zm36.85,0h32.86v28.84h-32.86v-28.84Zm36.85,0h32.86v28.84h-32.86v-28.84Zm36.85,0h32.86v28.84h-32.86v-28.84Zm36.85,0h32.86v28.84h-32.86v-28.84Zm36.85,0h32.86v28.84h-32.86v-28.84Zm36.85,0h32.86v28.84h-32.86v-28.84Zm36.85,0h32.86v28.84h-32.86v-28.84Zm36.85,0h32.86v28.84h-32.86v-28.84Zm36.85,0h32.86v28.84h-32.86v-28.84Zm36.85,0h32.86v28.84h-32.86v-28.84Zm36.85,0h32.86v28.84h-32.86v-28.84Zm36.85,0h32.86v28.84h-32.86v-28.84Zm36.85,0h32.86v28.84h-32.86v-28.84Zm36.85,0h32.86v28.84h-32.86v-28.84Zm36.85,0h32.86v28.84h-32.86v-28.84Zm36.85,0h32.86v28.84h-32.86v-28.84Zm36.85,0h32.86v28.84h-32.86v-28.84Zm36.85,0h32.86v28.84h-32.86v-28.84Zm36.85,0h32.86v28.84h-32.86v-28.84Zm36.85,0h32.86v28.84h-32.86v-28.84Zm36.85,0h32.86v28.84h-32.86v-28.84Zm36.85,0h32.86v28.84h-32.86v-28.84Zm36.85,0h32.86v28.84h-32.86v-28.84Zm36.85,0h32.86v28.84h-32.86v-28.84Zm36.85,0h32.86v28.84h-32.86v-28.84Zm36.85,0h32.86v28.84h-32.86v-28.84Zm36.85,0h32.86v28.84h-32.86v-28.84Zm36.85,0h32.86v28.84h-32.86v-28.84Zm0-4.76v-28.84h32.86v28.84h-32.86Zm36.85-28.84h32.86v28.84h-32.86v-28.84Zm0-4.76v-28.84h32.86v28.84h-32.86Zm0-33.6v-28.84h32.86v28.84h-32.86Zm0-33.6v-28.84h32.86v28.84h-32.86Zm0-33.6v-28.84h32.86v28.84h-32.86Zm0-33.6v-28.84h32.86v28.84h-32.86Zm0-33.6v-28.84h32.86v28.84h-32.86Zm0-33.6v-28.84h32.86v28.84h-32.86Zm0-33.6v-28.84h32.86v28.84h-32.86Zm0-33.6v-28.84h32.86v28.84h-32.86Zm0-33.6v-28.84h32.86v28.84h-32.86Zm0-33.6v-28.84h32.86v28.84h-32.86Zm0-33.6v-28.84h32.86v28.84h-32.86Zm0-33.6v-28.84h32.86v28.84h-32.86Zm0-33.6v-28.84h32.86v28.84h-32.86Zm0-33.6v-28.84h32.86v28.84h-32.86Zm0-33.6v-28.84h32.86v28.84h-32.86Zm0-33.6v-28.84h32.86v28.84h-32.86Zm0-33.6v-28.84h32.86v28.84h-32.86Zm0-33.6v-28.84h32.86v28.84h-32.86Zm0-33.6v-28.84h32.86v28.84h-32.86Zm0-33.6v-28.84h32.86v28.84h-32.86Zm0-33.6v-28.84h32.86v28.84h-32.86Zm0-33.6v-28.84h32.86v28.84h-32.86Zm0-33.6v-28.84h32.86v28.84h-32.86Zm0-33.6v-28.84h32.86v28.84h-32.86Zm0-33.6v-28.84h32.86v28.84h-32.86Zm0-33.6v-28.84h32.86v28.84h-32.86Zm-3.99,0h-32.86v-28.84h32.86v28.84Zm-36.85,0h-32.86v-28.84h32.86v28.84Zm-36.85,0h-32.86v-28.84h32.86v28.84Zm-36.85,0h-32.86v-28.84h32.86v28.84Zm-36.85,0h-32.86v-28.84h32.86v28.84Zm-36.85,0h-32.86v-28.84h32.86v28.84Zm-36.85,0h-32.86v-28.84h32.86v28.84Zm-36.85,0h-32.86v-28.84h32.86v28.84Zm-36.85,0h-32.86v-28.84h32.86v28.84Zm-36.85,0h-32.86v-28.84h32.86v28.84Zm-36.85,0h-32.86v-28.84h32.86v28.84Zm-36.85,0h-32.86v-28.84h32.86v28.84Zm-36.85,0h-32.86v-28.84h32.86v28.84Zm-36.85,0h-32.86v-28.84h32.86v28.84Zm-36.85,0h-32.86v-28.84h32.86v28.84Zm-36.85,0h-32.86v-28.84h32.86v28.84Zm-36.85,0h-32.86v-28.84h32.86v28.84Zm-36.85,0h-32.86v-28.84h32.86v28.84Zm-36.85,0h-32.86v-28.84h32.86v28.84Zm-36.85,0h-32.86v-28.84h32.86v28.84Zm-36.85,0h-32.86v-28.84h32.86v28.84Zm-36.85,0h-32.86v-28.84h32.86v28.84Zm-36.85,0h-32.86v-28.84h32.86v28.84Zm-36.85,0h-32.86v-28.84h32.86v28.84Zm-36.85,0h-32.86v-28.84h32.86v28.84Zm-36.85,0h-32.86v-28.84h32.86v28.84Zm-36.85,0h-32.86v-28.84h32.86v28.84Zm-36.85,0h-32.86v-28.84h32.86v28.84Zm-36.85,0h-32.86v-28.84h32.86v28.84Zm-36.85,0h-32.86v-28.84h32.86v28.84Zm-36.85,0h-32.86v-28.84h32.86v28.84Zm-36.85,0h-32.86v-28.84h32.86v28.84Zm-36.85,0h-32.86v-28.84h32.86v28.84Zm-36.85,0h-32.86v-28.84h32.86v28.84Zm-36.85,0h-32.86v-28.84h32.86v28.84Zm-36.85,0h-32.86v-28.84h32.86v28.84Zm-36.85,0h-32.86v-28.84h32.86v28.84Zm-36.85,0h-32.86v-28.84h32.86v28.84Zm-36.85,0h-32.86v-28.84h32.86v28.84Zm-36.85,0h-32.86v-28.84h32.86v28.84Zm-36.85,0h-32.86v-28.84h32.86v28.84Zm-36.85,0h-32.86v-28.84h32.86v28.84Zm-36.85,0h-32.86v-28.84h32.86v28.84Zm-36.85,0h-32.86v-28.84h32.86v28.84Zm-36.85,0h-32.86v-28.84h32.86v28.84Zm-36.85,0h-32.86v-28.84h32.86v28.84Zm-36.85,0h-32.86v-28.84h32.86v28.84Zm0,4.76v28.84h-32.86v-28.84h32.86Zm-36.85,28.84h-32.86v-28.84h32.86v28.84Zm0,4.76v28.84h-32.86v-28.84h32.86Zm0,33.6v28.84h-32.86v-28.84h32.86Zm0,33.6v28.84h-32.86v-28.84h32.86Zm0,33.6v28.84h-32.86v-28.84h32.86Zm0,33.6v28.84h-32.86v-28.84h32.86Zm0,33.6v28.84h-32.86v-28.84h32.86Zm0,33.6v28.84h-32.86v-28.84h32.86Zm0,33.6v28.84h-32.86v-28.84h32.86Zm0,33.6v28.84h-32.86v-28.84h32.86Zm0,33.6v28.84h-32.86v-28.84h32.86Zm0,33.6v28.84h-32.86v-28.84h32.86Zm0,33.6v28.84h-32.86v-28.84h32.86Zm0,33.6v28.84h-32.86v-28.84h32.86Zm0,33.6v28.84h-32.86v-28.84h32.86Zm0,33.6v28.84h-32.86v-28.84h32.86Zm0,33.6v28.84h-32.86v-28.84h32.86Zm0,33.6v28.84h-32.86v-28.84h32.86Zm0,33.6v28.84h-32.86v-28.84h32.86Zm0,33.6v28.84h-32.86v-28.84h32.86Zm0,33.6v28.84h-32.86v-28.84h32.86Zm0,33.6v28.84h-32.86v-28.84h32.86Zm0,33.6v28.84h-32.86v-28.84h32.86Zm0,33.6v28.84h-32.86v-28.84h32.86Zm0,33.6v28.84h-32.86v-28.84h32.86Zm0,33.6v28.84h-32.86v-28.84h32.86Zm0,33.6v28.84h-32.86v-28.84h32.86Zm0,33.6v28.84h-32.86v-28.84h32.86Zm3.99,0h32.86v28.84h-32.86v-28.84Zm32.86,33.6v28.84h-32.86v-28.84h32.86Zm3.99,0h32.86v28.84h-32.86v-28.84Zm36.85,0h32.86v28.84h-32.86v-28.84Zm36.85,0h32.86v28.84h-32.86v-28.84Zm36.85,0h32.86v28.84h-32.86v-28.84Zm36.85,0h32.86v28.84h-32.86v-28.84Zm36.85,0h32.86v28.84h-32.86v-28.84Zm36.85,0h32.86v28.84h-32.86v-28.84Zm36.85,0h32.86v28.84h-32.86v-28.84Zm36.85,0h32.86v28.84h-32.86v-28.84Zm36.85,0h32.86v28.84h-32.86v-28.84Zm36.85,0h32.86v28.84h-32.86v-28.84Zm36.85,0h32.86v28.84h-32.86v-28.84Zm36.85,0h32.86v28.84h-32.86v-28.84Zm36.85,0h32.86v28.84h-32.86v-28.84Zm36.85,0h32.86v28.84h-32.86v-28.84Zm36.85,0h32.86v28.84h-32.86v-28.84Zm36.85,0h32.86v28.84h-32.86v-28.84Zm36.85,0h32.86v28.84h-32.86v-28.84Zm36.85,0h32.86v28.84h-32.86v-28.84Zm36.85,0h32.86v28.84h-32.86v-28.84Zm36.85,0h32.86v28.84h-32.86v-28.84Zm36.85,0h32.86v28.84h-32.86v-28.84Zm36.85,0h32.86v28.84h-32.86v-28.84Zm36.85,0h32.86v28.84h-32.86v-28.84Zm36.85,0h32.86v28.84h-32.86v-28.84Zm36.85,0h32.86v28.84h-32.86v-28.84Zm36.85,0h32.86v28.84h-32.86v-28.84Zm36.85,0h32.86v28.84h-32.86v-28.84Zm36.85,0h32.86v28.84h-32.86v-28.84Zm36.85,0h32.86v28.84h-32.86v-28.84Zm36.85,0h32.86v28.84h-32.86v-28.84Zm36.85,0h32.86v28.84h-32.86v-28.84Zm36.85,0h32.86v28.84h-32.86v-28.84Zm36.85,0h32.86v28.84h-32.86v-28.84Zm36.85,0h32.86v28.84h-32.86v-28.84Zm36.85,0h32.86v28.84h-32.86v-28.84Zm36.85,0h32.86v28.84h-32.86v-28.84Zm36.85,0h32.86v28.84h-32.86v-28.84Zm36.85,0h32.86v28.84h-32.86v-28.84Zm36.85,0h32.86v28.84h-32.86v-28.84Zm36.85,0h32.86v28.84h-32.86v-28.84Zm36.85,0h32.86v28.84h-32.86v-28.84Zm36.85,0h32.86v28.84h-32.86v-28.84Zm36.85,0h32.86v28.84h-32.86v-28.84Zm36.85,0h32.86v28.84h-32.86v-28.84Zm36.85,0h32.86v28.84h-32.86v-28.84Zm36.85,0h32.86v28.84h-32.86v-28.84Zm0-4.76v-28.84h32.86v28.84h-32.86Zm36.85-28.84h32.86v28.84h-32.86v-28.84Zm0-4.76v-28.84h32.86v28.84h-32.86Zm0-33.6v-28.84h32.86v28.84h-32.86Zm0-33.6v-28.84h32.86v28.84h-32.86Zm0-33.6v-28.84h32.86v28.84h-32.86Zm0-33.6v-28.84h32.86v28.84h-32.86Zm0-33.6v-28.84h32.86v28.84h-32.86Zm0-33.6v-28.84h32.86v28.84h-32.86Zm0-33.6v-28.84h32.86v28.84h-32.86Zm0-33.6v-28.84h32.86v28.84h-32.86Zm0-33.6v-28.84h32.86v28.84h-32.86Zm0-33.6v-28.84h32.86v28.84h-32.86Zm0-33.6v-28.84h32.86v28.84h-32.86Zm0-33.6v-28.84h32.86v28.84h-32.86Zm0-33.6v-28.84h32.86v28.84h-32.86Zm0-33.6v-28.84h32.86v28.84h-32.86Zm0-33.6v-28.84h32.86v28.84h-32.86Zm0-33.6v-28.84h32.86v28.84h-32.86Zm0-33.6v-28.84h32.86v28.84h-32.86Zm0-33.6v-28.84h32.86v28.84h-32.86Zm0-33.6v-28.84h32.86v28.84h-32.86Zm0-33.6v-28.84h32.86v28.84h-32.86Zm0-33.6v-28.84h32.86v28.84h-32.86Zm0-33.6v-28.84h32.86v28.84h-32.86Zm0-33.6v-28.84h32.86v28.84h-32.86Zm0-33.6v-28.84h32.86v28.84h-32.86Zm0-33.6v-28.84h32.86v28.84h-32.86Zm0-33.6v-28.84h32.86v28.84h-32.86Zm0-33.6v-28.84h32.86v28.84h-32.86Zm0-33.6V4.76h32.86v28.84h-32.86Zm-3.99,0h-32.86V4.76h32.86v28.84Zm-36.85,0h-32.86V4.76h32.86v28.84Zm-36.85,0h-32.86V4.76h32.86v28.84Zm-36.85,0h-32.86V4.76h32.86v28.84Zm-36.85,0h-32.86V4.76h32.86v28.84Zm-36.85,0h-32.86V4.76h32.86v28.84Zm-36.85,0h-32.86V4.76h32.86v28.84Zm-36.85,0h-32.86V4.76h32.86v28.84Zm-36.85,0h-32.86V4.76h32.86v28.84Zm-36.85,0h-32.86V4.76h32.86v28.84Zm-36.85,0h-32.86V4.76h32.86v28.84Zm-36.85,0h-32.86V4.76h32.86v28.84Zm-36.85,0h-32.86V4.76h32.86v28.84Zm-36.85,0h-32.86V4.76h32.86v28.84Zm-36.85,0h-32.86V4.76h32.86v28.84Zm-36.85,0h-32.86V4.76h32.86v28.84Zm-36.85,0h-32.86V4.76h32.86v28.84Zm-36.85,0h-32.86V4.76h32.86v28.84Zm-36.85,0h-32.86V4.76h32.86v28.84Zm-36.85,0h-32.86V4.76h32.86v28.84Zm-36.85,0h-32.86V4.76h32.86v28.84Zm-36.85,0h-32.86V4.76h32.86v28.84Zm-36.85,0h-32.86V4.76h32.86v28.84Zm-36.85,0h-32.86V4.76h32.86v28.84Zm-36.85,0h-32.86V4.76h32.86v28.84Zm-36.85,0h-32.86V4.76h32.86v28.84Zm-36.85,0h-32.86V4.76h32.86v28.84Zm-36.85,0h-32.86V4.76h32.86v28.84Zm-36.85,0h-32.86V4.76h32.86v28.84Zm-36.85,0h-32.86V4.76h32.86v28.84Zm-36.85,0h-32.86V4.76h32.86v28.84Zm-36.85,0h-32.86V4.76h32.86v28.84Zm-36.85,0h-32.86V4.76h32.86v28.84Zm-36.85,0h-32.86V4.76h32.86v28.84Zm-36.85,0h-32.86V4.76h32.86v28.84Zm-36.85,0h-32.86V4.76h32.86v28.84Zm-36.85,0h-32.86V4.76h32.86v28.84Zm-36.85,0h-32.86V4.76h32.86v28.84Zm-36.85,0h-32.86V4.76h32.86v28.84Zm-36.85,0h-32.86V4.76h32.86v28.84Zm-36.85,0h-32.86V4.76h32.86v28.84Zm-36.85,0h-32.86V4.76h32.86v28.84Zm-36.85,0h-32.86V4.76h32.86v28.84Zm-36.85,0h-32.86V4.76h32.86v28.84Zm-36.85,0h-32.86V4.76h32.86v28.84Zm-36.85,0h-32.86V4.76h32.86v28.84Zm-36.85,0h-32.86V4.76h32.86v28.84Zm-36.85,0h-32.86V4.76h32.86v28.84Zm-36.85,0h-32.86V4.76h32.86v28.84Zm0,4.76v28.84h-32.86v-28.84h32.86Zm-36.85,28.84H5.99v-28.84h32.86v28.84Zm0,4.76v28.84H5.99v-28.84h32.86Zm0,33.6v28.84H5.99v-28.84h32.86Zm0,33.6v28.84H5.99v-28.84h32.86Zm0,33.6v28.84H5.99v-28.84h32.86Zm0,33.6v28.84H5.99v-28.84h32.86Zm0,33.6v28.84H5.99v-28.84h32.86Zm0,33.6v28.84H5.99v-28.84h32.86Zm0,33.6v28.84H5.99v-28.84h32.86Zm0,33.6v28.84H5.99v-28.84h32.86Zm0,33.6v28.84H5.99v-28.84h32.86Zm0,33.6v28.84H5.99v-28.84h32.86Zm0,33.6v28.84H5.99v-28.84h32.86Zm0,33.6v28.84H5.99v-28.84h32.86Zm0,33.6v28.84H5.99v-28.84h32.86Zm0,33.6v28.84H5.99v-28.84h32.86Zm0,33.6v28.84H5.99v-28.84h32.86Zm0,33.6v28.84H5.99v-28.84h32.86Zm0,33.6v28.84H5.99v-28.84h32.86Zm0,33.6v28.84H5.99v-28.84h32.86Zm0,33.6v28.84H5.99v-28.84h32.86Zm0,33.6v28.84H5.99v-28.84h32.86Zm0,33.6v28.84H5.99v-28.84h32.86Zm0,33.6v28.84H5.99v-28.84h32.86Zm0,33.6v28.84H5.99v-28.84h32.86Zm0,33.6v28.84H5.99v-28.84h32.86Zm0,33.6v28.84H5.99v-28.84h32.86Zm0,33.6v28.84H5.99v-28.84h32.86Zm0,33.6v28.84H5.99v-28.84h32.86Zm0,33.6v28.84H5.99v-28.84h32.86Zm3.99,0h32.86v28.84h-32.86v-28.84Zm32.86,33.6v28.84h-32.86v-28.84h32.86Zm3.99,0h32.86v28.84h-32.86v-28.84Zm36.85,0h32.86v28.84h-32.86v-28.84Zm36.85,0h32.86v28.84h-32.86v-28.84Zm36.85,0h32.86v28.84h-32.86v-28.84Zm36.85,0h32.86v28.84h-32.86v-28.84Zm36.85,0h32.86v28.84h-32.86v-28.84Zm36.85,0h32.86v28.84h-32.86v-28.84Zm36.85,0h32.86v28.84h-32.86v-28.84Zm36.85,0h32.86v28.84h-32.86v-28.84Zm36.85,0h32.86v28.84h-32.86v-28.84Zm36.85,0h32.86v28.84h-32.86v-28.84Zm36.85,0h32.86v28.84h-32.86v-28.84Zm36.85,0h32.86v28.84h-32.86v-28.84Zm36.85,0h32.86v28.84h-32.86v-28.84Zm36.85,0h32.86v28.84h-32.86v-28.84Zm36.85,0h32.86v28.84h-32.86v-28.84Zm36.85,0h32.86v28.84h-32.86v-28.84Zm36.85,0h32.86v28.84h-32.86v-28.84Zm36.85,0h32.86v28.84h-32.86v-28.84Zm36.85,0h32.86v28.84h-32.86v-28.84Zm36.85,0h32.86v28.84h-32.86v-28.84Zm36.85,0h32.86v28.84h-32.86v-28.84Zm36.85,0h32.86v28.84h-32.86v-28.84Zm36.85,0h32.86v28.84h-32.86v-28.84Zm36.85,0h32.86v28.84h-32.86v-28.84Zm36.85,0h32.86v28.84h-32.86v-28.84Zm36.85,0h32.86v28.84h-32.86v-28.84Zm36.85,0h32.86v28.84h-32.86v-28.84Zm36.85,0h32.86v28.84h-32.86v-28.84Zm36.85,0h32.86v28.84h-32.86v-28.84Zm36.85,0h32.86v28.84h-32.86v-28.84Zm36.85,0h32.86v28.84h-32.86v-28.84Zm36.85,0h32.86v28.84h-32.86v-28.84Zm36.85,0h32.86v28.84h-32.86v-28.84Zm36.85,0h32.86v28.84h-32.86v-28.84Zm36.85,0h32.86v28.84h-32.86v-28.84Zm36.85,0h32.86v28.84h-32.86v-28.84Zm36.85,0h32.86v28.84h-32.86v-28.84Zm36.85,0h32.86v28.84h-32.86v-28.84Zm36.85,0h32.86v28.84h-32.86v-28.84Zm36.85,0h32.86v28.84h-32.86v-28.84Zm36.85,0h32.86v28.84h-32.86v-28.84Zm36.85,0h32.86v28.84h-32.86v-28.84Zm36.85,0h32.86v28.84h-32.86v-28.84Zm36.85,0h32.86v28.84h-32.86v-28.84Zm36.85,0h32.86v28.84h-32.86v-28.84Zm36.85,0h32.86v28.84h-32.86v-28.84Zm36.85,0h32.86v28.84h-32.86v-28.84Zm36.85,0h32.86v28.84h-32.86v-28.84Zm0-4.76v-28.84h32.86v28.84h-32.86Zm36.85-28.84h32.86v28.84h-32.86v-28.84Zm0-4.76v-28.84h32.86v28.84h-32.86Zm0-33.6v-28.84h32.86v28.84h-32.86Zm0-33.6v-28.84h32.86v28.84h-32.86Zm0-33.6v-28.84h32.86v28.84h-32.86Zm0-33.6v-28.84h32.86v28.84h-32.86Zm0-33.6v-28.84h32.86v28.84h-32.86Zm0-33.6v-28.84h32.86v28.84h-32.86Zm0-33.6v-28.84h32.86v28.84h-32.86Zm0-33.6v-28.84h32.86v28.84h-32.86Zm0-33.6v-28.84h32.86v28.84h-32.86Zm0-33.6v-28.84h32.86v28.84h-32.86Zm0-33.6v-28.84h32.86v28.84h-32.86Zm0-33.6v-28.84h32.86v28.84h-32.86Zm0-33.6v-28.84h32.86v28.84h-32.86Zm0-33.6v-28.84h32.86v28.84h-32.86Zm0-33.6v-28.84h32.86v28.84h-32.86Zm0-33.6v-28.84h32.86v28.84h-32.86Zm0-33.6v-28.84h32.86v28.84h-32.86Zm0-33.6v-28.84h32.86v28.84h-32.86Zm0-33.6v-28.84h32.86v28.84h-32.86Zm0-33.6v-28.84h32.86v28.84h-32.86Zm0-33.6v-28.84h32.86v28.84h-32.86Zm0-33.6v-28.84h32.86v28.84h-32.86Zm0-33.6v-28.84h32.86v28.84h-32.86Zm0-33.6v-28.84h32.86v28.84h-32.86Zm0-33.6v-28.84h32.86v28.84h-32.86Zm0-33.6v-28.84h32.86v28.84h-32.86Zm0-33.6v-28.84h32.86v28.84h-32.86Zm0-33.6v-28.84h32.86v28.84h-32.86ZM38.85,4.76v28.84H5.99V4.76h32.86ZM5.99,1046.4h32.86v28.84H5.99v-28.84Zm1879.17,28.84v-28.84h32.86v28.84h-32.86Z"/></svg>